<?xml version="1.0" encoding="UTF-8"?>
<svg data-name="Oak Full" viewBox="0 0 215.64 79.16" xmlns="http://www.w3.org/2000/svg">
<title>logo</title>
<g fill-rule="evenodd">
  <path transform="translate(-10.45 -10.42)" d="M75.88,26.3l6.65-.24h.06c.19-1.24,1.42-2.17,2.33-2.91h0c.44-.36.89-.73,1.3-1.13a10.77,10.77,0,0,0,.9-1l-.53,0a21,21,0,0,0-2.46.37,17.13,17.13,0,0,1-3.74.37L75.88,26.3ZM87.5,14.68l-5.15,5.15c.47-.06.93-.14,1.42-.24a23.11,23.11,0,0,1,2.41-.38c1.28-1.09,1.36-2.1,1.33-3.67,0-.29,0-.58,0-.86ZM74,28.23,68.48,33.7,77,33.18h0c.4,0,.8-.07,1.2-.09a3.44,3.44,0,0,1,2-1.57,4.91,4.91,0,0,0,2.48-2,10.83,10.83,0,0,0,.85-1.61h-.11l-.47,0-.34,0L74,28.23ZM61.45,40.74H73a8.55,8.55,0,0,1,3.72-2.14,3.85,3.85,0,0,0,2.39-1.74c.09-.11,1.14-1.61.86-1.75a3,3,0,0,0-1.21-.17L77.25,35h-.13l-10.62.65-5.05,5.05ZM81,18.49c.06-.47.14-.93.24-1.42a22.62,22.62,0,0,0,.38-2.41c1.09-1.28,2.1-1.36,3.68-1.33h.86L81,18.49ZM74.54,25l.24-6.65a.6.6,0,0,1,0-.06c1.24-.19,2.17-1.42,2.91-2.33h0a16.47,16.47,0,0,1,1.12-1.28,10.39,10.39,0,0,1,1-.91l0,.53a21.6,21.6,0,0,1-.37,2.46A17.08,17.08,0,0,0,79,20.44L74.54,25Zm-7.4,7.41.52-8.54h0c0-.4.07-.81.09-1.21a3.44,3.44,0,0,0,1.57-2,4.9,4.9,0,0,1,2-2.48A11.19,11.19,0,0,1,73,17.32a.6.6,0,0,0,0,.11c0,.16,0,.31,0,.47s0,.22,0,.33l-.31,8.65-5.47,5.48Zm-7,7V27.8a8.55,8.55,0,0,0,2.14-3.72A3.86,3.86,0,0,1,64,21.69c.11-.08,1.61-1.14,1.75-.86A3,3,0,0,1,65.9,22l-.09,1.55v0s0,.05,0,.08l-.65,10.62-5,5.05Zm-.7,3.2h0l-.1,0H59l-.1,0h0l-.07,0-.07,0-.07,0h0l-.07-.05,0,0h0l-.08-.08,0,0h0l0,0,0-.06,0,0,0-.08,0,0,0-.09v0l0-.08v-.36l0-14.25a.92.92,0,0,1,.46-.63,6.89,6.89,0,0,0,1.74-3,5.49,5.49,0,0,1,2.42-3.36c1.3-1,3.47-2.2,4.5-.23a2.15,2.15,0,0,1,.1.22l.14-.31a6.55,6.55,0,0,1,2.75-3.29c1.07-.66,3.24-1.84,4.17-.33l0,.09a5.71,5.71,0,0,0,1.65-1.6c.4-.49.81-1,1.26-1.44a5,5,0,0,1,2.56-1.62,1.33,1.33,0,0,1,1.32.68,5.93,5.93,0,0,1,3.94-.88,5.54,5.54,0,0,0,3.38-.69l.09-.09a.93.93,0,0,1,1.32,0h0a.94.94,0,0,1,0,1.32l-.09.09a5.53,5.53,0,0,0-.69,3.38,6,6,0,0,1-.88,3.94,1.33,1.33,0,0,1,.68,1.32,5,5,0,0,1-1.62,2.56,18,18,0,0,1-1.43,1.26c-.4.32-1.39,1.07-1.6,1.66l.09.05c1.51.92.33,3.09-.33,4.16A6.55,6.55,0,0,1,81,33.21l-.31.14.22.1c2,1,.72,3.2-.23,4.5a5.48,5.48,0,0,1-3.36,2.42,6.88,6.88,0,0,0-3,1.74.94.94,0,0,1-.63.46Z"/>
  <path transform="translate(-10.45 -10.42)" d="M75.88,73.7l6.65.24h.06c.19,1.24,1.42,2.17,2.33,2.91h0A16.85,16.85,0,0,1,86.22,78a10.38,10.38,0,0,1,.9,1l-.53,0a21,21,0,0,1-2.46-.37,17.15,17.15,0,0,0-3.74-.38L75.88,73.7ZM87.5,85.32l-5.15-5.15c.47.06.93.14,1.42.24a22.41,22.41,0,0,0,2.41.38c1.28,1.09,1.36,2.1,1.33,3.67,0,.29,0,.57,0,.86ZM74,71.77,68.48,66.3l8.53.53h0l1.2.08a3.43,3.43,0,0,0,2,1.57,4.89,4.89,0,0,1,2.48,2,11.13,11.13,0,0,1,.85,1.61l-.11,0-.47,0-.34,0L74,71.77ZM61.45,59.27H73a8.54,8.54,0,0,0,3.72,2.14,3.85,3.85,0,0,1,2.39,1.74c.09.11,1.14,1.61.86,1.75a3.09,3.09,0,0,1-1.21.17L77.25,65h-.13L66.5,64.32l-5.05-5.05ZM81,81.51c.06.47.14.93.24,1.41a22.7,22.7,0,0,1,.38,2.41c1.09,1.28,2.1,1.36,3.68,1.34h.86L81,81.51ZM74.54,75l.24,6.65a.53.53,0,0,0,0,.06c1.24.19,2.17,1.42,2.91,2.33h0a16.47,16.47,0,0,0,1.12,1.28,9.77,9.77,0,0,0,1,.91l0-.53a21.49,21.49,0,0,0-.37-2.46A17.09,17.09,0,0,1,79,79.56L74.54,75Zm-7.4-7.4.52,8.54h0c0,.41.07.8.09,1.21a3.46,3.46,0,0,1,1.57,2,4.88,4.88,0,0,0,2,2.48,10.94,10.94,0,0,0,1.61.84.55.55,0,0,1,0-.11c0-.16,0-.32,0-.47s0-.22,0-.33l-.31-8.65-5.47-5.47Zm-7-7V72.21a8.57,8.57,0,0,1,2.14,3.72A3.86,3.86,0,0,0,64,78.32c.11.08,1.61,1.14,1.75.86A3.06,3.06,0,0,0,65.9,78l-.09-1.55v0s0-.05,0-.08l-.65-10.62-5-5.05Zm-.7-3.2h0l-.1,0H59l-.1,0h0l-.07,0-.07,0-.07,0h0l-.07.05,0,0h0l-.08.08,0,0h0l0,0,0,.06,0,0,0,.08,0,0,0,.09v0l0,.08v.37l0,14.24a.93.93,0,0,0,.46.63,6.86,6.86,0,0,1,1.74,3,5.49,5.49,0,0,0,2.42,3.35c1.3,1,3.47,2.21,4.5.23a2,2,0,0,0,.1-.22l.14.31a6.53,6.53,0,0,0,2.75,3.29c1.07.66,3.24,1.84,4.17.33l0-.09a5.73,5.73,0,0,1,1.65,1.6,19,19,0,0,0,1.26,1.44,5,5,0,0,0,2.56,1.62,1.33,1.33,0,0,0,1.32-.68,6,6,0,0,0,3.94.89,5.58,5.58,0,0,1,3.38.69l.09.09a.93.93,0,0,0,1.32,0h0a.93.93,0,0,0,0-1.32l-.09-.08a5.55,5.55,0,0,1-.69-3.38,6,6,0,0,0-.88-3.94,1.33,1.33,0,0,0,.68-1.31,5,5,0,0,0-1.62-2.57,18.41,18.41,0,0,0-1.43-1.26,5.71,5.71,0,0,1-1.6-1.66l.09-.05c1.51-.92.33-3.09-.33-4.16A6.59,6.59,0,0,0,81,66.79l-.31-.14.22-.1c2-1,.72-3.2-.23-4.5a5.47,5.47,0,0,0-3.36-2.42,6.88,6.88,0,0,1-3-1.75.94.94,0,0,0-.63-.46Z"/>
  <path transform="translate(-10.45 -10.42)" d="M25,26.3l-6.65-.24h-.06c-.19-1.24-1.42-2.17-2.32-2.91h0c-.44-.36-.89-.73-1.3-1.13a11.28,11.28,0,0,1-.91-1l.53,0a21.16,21.16,0,0,1,2.46.37,17.13,17.13,0,0,0,3.74.37L25,26.3ZM13.36,14.68l5.15,5.15c-.47-.06-.93-.14-1.42-.24a23.14,23.14,0,0,0-2.41-.38c-1.28-1.09-1.37-2.1-1.33-3.67,0-.29,0-.58,0-.86ZM26.91,28.23l5.47,5.47-8.53-.52h0c-.4,0-.8-.07-1.2-.09a3.44,3.44,0,0,0-2-1.57,4.9,4.9,0,0,1-2.48-2,10.82,10.82,0,0,1-.84-1.61h.11l.47,0,.34,0,8.64.31ZM39.42,40.74H27.82a8.53,8.53,0,0,0-3.72-2.14,3.85,3.85,0,0,1-2.39-1.74c-.09-.11-1.14-1.61-.86-1.75a3,3,0,0,1,1.21-.17l1.55.09h.13l10.62.65,5.05,5.05ZM19.86,18.49c-.06-.47-.14-.93-.24-1.42a22.88,22.88,0,0,1-.38-2.41c-1.09-1.28-2.1-1.36-3.67-1.33h-.86l5.15,5.15ZM26.33,25l-.24-6.65s0,0,0-.06c-1.24-.19-2.17-1.42-2.91-2.33h0A16.23,16.23,0,0,0,22,14.62a10.47,10.47,0,0,0-1-.91l0,.53a21.6,21.6,0,0,0,.37,2.46,17.31,17.31,0,0,1,.38,3.74L26.33,25Zm7.4,7.41-.52-8.54h0c0-.4-.07-.81-.09-1.21a3.43,3.43,0,0,1-1.57-2,4.92,4.92,0,0,0-2-2.48,11.38,11.38,0,0,0-1.61-.84s0,.08,0,.11,0,.31,0,.47,0,.22,0,.33l.31,8.65,5.47,5.48Zm7,7V27.8a8.55,8.55,0,0,1-2.14-3.72,3.85,3.85,0,0,0-1.74-2.39c-.11-.08-1.61-1.14-1.76-.86A3,3,0,0,0,35,22l.09,1.55v0s0,.05,0,.08l.65,10.62,5.05,5.05Zm.7,3.2h0l.1,0h.29l.1,0h0l.07,0,.06,0,.07,0h0l.07-.05,0,0h0l.07-.08,0,0h0l0,0,0-.06,0,0,0-.08,0,0,0-.09v0l0-.08v-.36l0-14.25a.93.93,0,0,0-.46-.63,6.88,6.88,0,0,1-1.75-3A5.47,5.47,0,0,0,38,20.19c-1.3-1-3.46-2.2-4.5-.23a1.58,1.58,0,0,0-.1.22l-.15-.31a6.53,6.53,0,0,0-2.75-3.29c-1.07-.66-3.24-1.84-4.16-.33l0,.09a5.71,5.71,0,0,1-1.66-1.6c-.4-.49-.81-1-1.26-1.44a5,5,0,0,0-2.56-1.62,1.33,1.33,0,0,0-1.32.68,5.93,5.93,0,0,0-3.94-.88,5.54,5.54,0,0,1-3.38-.69l-.09-.09a.93.93,0,0,0-1.32,0h0a.94.94,0,0,0,0,1.32l.09.09a5.53,5.53,0,0,1,.7,3.38,5.94,5.94,0,0,0,.88,3.94,1.33,1.33,0,0,0-.68,1.32,5,5,0,0,0,1.62,2.56,18.39,18.39,0,0,0,1.44,1.26,5.79,5.79,0,0,1,1.6,1.66l-.09.05c-1.51.92-.33,3.09.33,4.16a6.55,6.55,0,0,0,3.29,2.75l.31.14-.22.1c-2,1-.72,3.2.23,4.5a5.47,5.47,0,0,0,3.35,2.42,6.88,6.88,0,0,1,3,1.74.94.94,0,0,0,.63.46Z"/>
  <path transform="translate(-10.45 -10.42)" d="M25,73.7l-6.65.24h-.06c-.19,1.24-1.42,2.17-2.32,2.91h0A16.44,16.44,0,0,0,14.64,78a10.86,10.86,0,0,0-.91,1l.53,0a21.09,21.09,0,0,0,2.46-.37,17.15,17.15,0,0,1,3.74-.38L25,73.7ZM13.36,85.32l5.15-5.15c-.47.06-.93.14-1.42.24a22.44,22.44,0,0,1-2.41.38c-1.28,1.09-1.37,2.1-1.33,3.67,0,.29,0,.57,0,.86ZM26.91,71.77l5.47-5.47-8.53.53h0l-1.2.08a3.42,3.42,0,0,1-2,1.57,4.89,4.89,0,0,0-2.48,2,11.11,11.11,0,0,0-.84,1.61l.11,0,.47,0,.34,0,8.64-.31ZM39.42,59.27H27.82a8.52,8.52,0,0,1-3.72,2.14,3.85,3.85,0,0,0-2.39,1.74c-.09.11-1.14,1.61-.86,1.75a3.1,3.1,0,0,0,1.21.17L23.61,65h.13l10.62-.65,5.05-5.05ZM19.86,81.51c-.06.47-.14.93-.24,1.41a23,23,0,0,0-.38,2.41c-1.09,1.28-2.1,1.36-3.67,1.34h-.86l5.15-5.15ZM26.33,75l-.24,6.65s0,0,0,.06c-1.24.19-2.17,1.42-2.91,2.33h0A16.23,16.23,0,0,1,22,85.38a9.85,9.85,0,0,1-1,.91l0-.53a21.49,21.49,0,0,1,.37-2.46,17.32,17.32,0,0,0,.38-3.75L26.33,75Zm7.4-7.4-.52,8.54h0c0,.41-.07.8-.09,1.21a3.45,3.45,0,0,0-1.57,2,4.9,4.9,0,0,1-2,2.48,11.11,11.11,0,0,1-1.61.84,1.06,1.06,0,0,0,0-.11c0-.16,0-.32,0-.47s0-.22,0-.33l.31-8.65,5.47-5.47Zm7-7V72.21a8.56,8.56,0,0,0-2.14,3.72,3.85,3.85,0,0,1-1.74,2.39c-.11.08-1.61,1.14-1.76.86A3.06,3.06,0,0,1,35,78l.09-1.55v0s0-.05,0-.08l.65-10.62,5.05-5.05Zm.7-3.2h0l.1,0h.29l.1,0h0l.07,0,.06,0,.07,0h0l.07.05,0,0h0l.07.08,0,0h0l0,0,0,.06,0,0,0,.08,0,0,0,.09v0l0,.08v.37l0,14.24a.93.93,0,0,1-.46.63,6.85,6.85,0,0,0-1.75,3A5.48,5.48,0,0,1,38,79.81c-1.3,1-3.46,2.21-4.5.23a1.53,1.53,0,0,1-.1-.22l-.15.31a6.52,6.52,0,0,1-2.75,3.29c-1.07.66-3.24,1.84-4.16.33l0-.09a5.73,5.73,0,0,0-1.66,1.6,19,19,0,0,1-1.26,1.44,5,5,0,0,1-2.56,1.62,1.33,1.33,0,0,1-1.32-.68,6,6,0,0,1-3.94.89,5.57,5.57,0,0,0-3.38.69l-.09.09a.93.93,0,0,1-1.32,0h0a.93.93,0,0,1,0-1.32l.09-.08a5.54,5.54,0,0,0,.7-3.38,5.94,5.94,0,0,1,.88-3.94,1.33,1.33,0,0,1-.68-1.31,5,5,0,0,1,1.62-2.57,18.87,18.87,0,0,1,1.44-1.26,5.75,5.75,0,0,0,1.6-1.66l-.09-.05c-1.51-.92-.33-3.09.33-4.16a6.58,6.58,0,0,1,3.29-2.75l.31-.14-.22-.1c-2-1-.72-3.2.23-4.5a5.46,5.46,0,0,1,3.35-2.42,6.88,6.88,0,0,0,3-1.75.94.94,0,0,1,.63-.46Z"/>
</g>
<path transform="translate(-10.45 -10.42)" d="M118.43,42.15a8,8,0,0,1-3.09-3.46,12.07,12.07,0,0,1-1.08-5.29,12.37,12.37,0,0,1,1.07-5.33,7.8,7.8,0,0,1,3.07-3.46,10,10,0,0,1,9.5,0A7.8,7.8,0,0,1,131,28.07a12.3,12.3,0,0,1,1.07,5.3,12.17,12.17,0,0,1-1.08,5.3,8,8,0,0,1-3.09,3.47,9.76,9.76,0,0,1-9.44,0ZM128,39.34a9.12,9.12,0,0,0,1.73-6,9.12,9.12,0,0,0-1.72-6,6.66,6.66,0,0,0-9.68,0,9.07,9.07,0,0,0-1.73,5.94,9.13,9.13,0,0,0,1.73,6,6.61,6.61,0,0,0,9.66,0Z" />
<path transform="translate(-10.45 -10.42)" d="M158.15,42.32a.88.88,0,0,1-.32.69,1.12,1.12,0,0,1-.76.28,1,1,0,0,1-1-.66l-2-4.49H143.7l-2,4.49a1,1,0,0,1-1,.66A1.14,1.14,0,0,1,140,43a.91.91,0,0,1-.33-.71,1,1,0,0,1,.11-.44l7.92-17.61a1.2,1.2,0,0,1,.5-.58,1.41,1.41,0,0,1,.72-.19,1.38,1.38,0,0,1,.75.21,1.29,1.29,0,0,1,.5.57L158,41.85A1,1,0,0,1,158.15,42.32Zm-13.62-6.06h8.78l-4.4-9.94Z" />
<path transform="translate(-10.45 -10.42)" d="M181.32,42.23a1,1,0,0,1-.32.71,1,1,0,0,1-.73.32,1.17,1.17,0,0,1-.75-.33l-10.36-9.05v8.25a1.17,1.17,0,0,1-.3.84,1.24,1.24,0,0,1-1.66,0,1.17,1.17,0,0,1-.3-.84V24.65a1.17,1.17,0,0,1,.3-.84,1.24,1.24,0,0,1,1.66,0,1.17,1.17,0,0,1,.3.84V32.6l9.88-8.78a1,1,0,0,1,.72-.3,1,1,0,0,1,.72.32,1,1,0,0,1,.3.71,1.08,1.08,0,0,1-.36.78l-8.94,7.86,9.44,8.25A1.08,1.08,0,0,1,181.32,42.23Z" />
<path transform="translate(-10.45 -10.42)" d="M118.47,75.39a8,8,0,0,1-3.12-3.46,13.47,13.47,0,0,1,0-10.63,8,8,0,0,1,3.12-3.46,9.18,9.18,0,0,1,4.79-1.2,10.24,10.24,0,0,1,3.5.59,8.52,8.52,0,0,1,2.87,1.7,1.29,1.29,0,0,1,.44,1,1.09,1.09,0,0,1-.22.68.65.65,0,0,1-.53.29,1.57,1.57,0,0,1-.8-.3A10.36,10.36,0,0,0,126,59a7.33,7.33,0,0,0-2.64-.44,6.05,6.05,0,0,0-4.94,2.09,9.07,9.07,0,0,0-1.73,5.94,9.12,9.12,0,0,0,1.73,6,6.05,6.05,0,0,0,4.94,2.09,7.36,7.36,0,0,0,2.63-.44,10.22,10.22,0,0,0,2.57-1.55,1.57,1.57,0,0,1,.8-.3.66.66,0,0,1,.53.28,1.07,1.07,0,0,1,.22.69,1.29,1.29,0,0,1-.44,1,8.52,8.52,0,0,1-2.87,1.7,10.24,10.24,0,0,1-3.5.59A9.18,9.18,0,0,1,118.47,75.39Z" />
<path transform="translate(-10.45 -10.42)" d="M139.58,76.08a1,1,0,0,1-.32-.76V57.88a1.17,1.17,0,0,1,.3-.84,1.24,1.24,0,0,1,1.66,0,1.17,1.17,0,0,1,.3.84V74.43h8.94a1.12,1.12,0,0,1,.78.25,1.08,1.08,0,0,1,0,1.44,1.12,1.12,0,0,1-.78.25H140.37A1.13,1.13,0,0,1,139.58,76.08Z" />
<path transform="translate(-10.45 -10.42)" d="M160.06,76.19a1.17,1.17,0,0,1-.3-.84V57.88a1.17,1.17,0,0,1,.3-.84,1.24,1.24,0,0,1,1.66,0,1.17,1.17,0,0,1,.3.84V75.35a1.17,1.17,0,0,1-.3.84,1.24,1.24,0,0,1-1.66,0Z" />
<path transform="translate(-10.45 -10.42)" d="M187.74,57a1.24,1.24,0,0,1,.28.84V75.35a1.2,1.2,0,0,1-.29.84,1.05,1.05,0,0,1-.82.32A1.15,1.15,0,0,1,186,76L174.51,60.67V75.35a1.2,1.2,0,0,1-.29.84,1,1,0,0,1-.79.32,1,1,0,0,1-.78-.32,1.24,1.24,0,0,1-.28-.84V57.88a1.21,1.21,0,0,1,.29-.84,1.05,1.05,0,0,1,.82-.32,1.18,1.18,0,0,1,.94.47l11.46,15.37V57.88a1.2,1.2,0,0,1,.29-.84,1,1,0,0,1,.79-.32A1,1,0,0,1,187.74,57Z" />
<path transform="translate(-10.45 -10.42)" d="M198.68,76.19a1.17,1.17,0,0,1-.3-.84V57.88a1.17,1.17,0,0,1,.3-.84,1.24,1.24,0,0,1,1.66,0,1.17,1.17,0,0,1,.3.84V75.35a1.17,1.17,0,0,1-.3.84,1.24,1.24,0,0,1-1.66,0Z" />
<path transform="translate(-10.45 -10.42)" d="M214.49,75.39a8,8,0,0,1-3.12-3.46,13.47,13.47,0,0,1,0-10.63,8,8,0,0,1,3.12-3.46,9.18,9.18,0,0,1,4.79-1.2,10.24,10.24,0,0,1,3.5.59,8.52,8.52,0,0,1,2.87,1.7,1.29,1.29,0,0,1,.44,1,1.09,1.09,0,0,1-.22.68.65.65,0,0,1-.53.29,1.57,1.57,0,0,1-.8-.3A10.36,10.36,0,0,0,222,59a7.33,7.33,0,0,0-2.64-.44,6.05,6.05,0,0,0-4.94,2.09,9.07,9.07,0,0,0-1.73,5.94,9.12,9.12,0,0,0,1.73,6,6.05,6.05,0,0,0,4.94,2.09,7.36,7.36,0,0,0,2.63-.44,10.22,10.22,0,0,0,2.57-1.55,1.57,1.57,0,0,1,.8-.3.66.66,0,0,1,.53.28,1.07,1.07,0,0,1,.22.69,1.29,1.29,0,0,1-.44,1,8.52,8.52,0,0,1-2.87,1.7,10.24,10.24,0,0,1-3.5.59A9.18,9.18,0,0,1,214.49,75.39Z" />
</svg>
