<?xml version="1.0" encoding="utf-8"?>
<!-- Generator: Adobe Illustrator 21.1.0, SVG Export Plug-In . SVG Version: 6.00 Build 0)  -->
<svg version="1.1" id="Layer_1" xmlns="http://www.w3.org/2000/svg" width="100" height="100" xmlns:xlink="http://www.w3.org/1999/xlink" x="0px" y="0px"
	 viewBox="0 0 100 100" style="enable-background:new 0 0 100 100;" xml:space="preserve">
<style type="text/css">
	.st0{fill:none;stroke:#474c55;stroke-width:3;stroke-linecap:round;stroke-miterlimit:10;}
	.st1{fill:#FAEFDE;}
	.st2{fill:#FAEFDE;}
	.st3{fill:#72CAAF;}
	.st4{fill:none;stroke:#474c55;stroke-width:3;stroke-linejoin:round;stroke-miterlimit:10;}
</style>
<line class="st0" x1="0.8" y1="85.2" x2="24.6" y2="61.4"/>
<path class="st1" d="M23.7,66.9c-1.2,0-2.3-0.4-3.2-1.3c-1.8-1.8-1.8-4.7,0-6.5l43.8-43.8c1.8-1.8,4.7-1.8,6.5,0
	c1.8,1.8,1.8,4.7,0,6.5L26.9,65.6C26,66.5,24.8,66.9,23.7,66.9z"/>
<path class="st2" d="M52.5,40l18.3-18.3c1.8-1.8,1.8-4.7,0-6.5c-1.8-1.8-4.7-1.8-6.5,0L46,33.5C46,33.5,52.5,40,52.5,40z"/>
<path class="st3" d="M69.4,23.1l1.3-1.3c1.8-1.8,1.8-4.7,0-6.5c-1.8-1.8-4.7-1.8-6.5,0l-1.3,1.3L69.4,23.1z"/>
<path class="st4" d="M23.7,66.9c-1.2,0-2.3-0.4-3.2-1.3c-1.8-1.8-1.8-4.7,0-6.5l43.8-43.8c1.8-1.8,4.7-1.8,6.5,0
	c1.8,1.8,1.8,4.7,0,6.5L26.9,65.6C26,66.5,24.8,66.9,23.7,66.9z"/>
<line class="st0" x1="26.5" y1="86.3" x2="50.3" y2="62.6"/>
<path class="st1" d="M49.4,68.1c-1.2,0-2.3-0.4-3.2-1.3c-1.8-1.8-1.8-4.7,0-6.5L90,16.4c1.8-1.8,4.7-1.8,6.5,0
	c1.8,1.8,1.8,4.7,0,6.5L52.6,66.7C51.7,67.6,50.5,68.1,49.4,68.1z"/>
<path class="st2" d="M78.2,41.2l18.3-18.3c1.8-1.8,1.8-4.7,0-6.5c-1.8-1.8-4.7-1.8-6.5,0L71.7,34.7C71.7,34.7,78.2,41.2,78.2,41.2z"
	/>
<path class="st3" d="M95.1,24.2l1.3-1.3c1.8-1.8,1.8-4.7,0-6.5c-1.8-1.8-4.7-1.8-6.5,0l-1.3,1.3L95.1,24.2z"/>
<path class="st4" d="M49.4,68.1c-1.2,0-2.3-0.4-3.2-1.3c-1.8-1.8-1.8-4.7,0-6.5L90,16.4c1.8-1.8,4.7-1.8,6.5,0
	c1.8,1.8,1.8,4.7,0,6.5L52.6,66.7C51.7,67.6,50.5,68.1,49.4,68.1z"/>
</svg>
