<svg xmlns="http://www.w3.org/2000/svg" x="0px" y="0px" width="100" height="100" viewBox="0 0 64 64" style=";fill:#000000;" class="icon icons8-syringe">
  <g id="surface1">
    <path style=" fill:#C5E4FA;" d="M 50.609375 27.101563 L 27.128906 50.578125 C 25.972656 51.738281 24.226563 52.078125 22.71875 51.429688 L 21.199219 50.78125 C 21.003906 50.699219 20.808594 50.609375 20.621094 50.511719 C 17.375 48.964844 14.742188 46.371094 13.148438 43.148438 C 13.015625 42.890625 12.898438 42.628906 12.789063 42.371094 L 12.140625 40.839844 C 11.496094 39.335938 11.835938 37.59375 12.988281 36.441406 L 36.308594 13.121094 L 36.828125 13.628906 L 40.628906 17.371094 L 46.628906 23.371094 Z "></path>
    <path style=" fill:#BBDEF9;" d="M 50.609375 27.101563 L 27.128906 50.578125 C 25.972656 51.738281 24.226563 52.078125 22.71875 51.429688 L 21.199219 50.78125 C 21.003906 50.699219 20.808594 50.609375 20.621094 50.511719 L 20 50 L 46.71875 23.28125 Z "></path>
    <path style=" fill:#E3F2FF;" d="M 41 17 L 14 44 L 13.148438 43.148438 C 13.015625 42.890625 12.898438 42.628906 12.789063 42.371094 L 12.140625 40.839844 C 11.496094 39.335938 11.835938 37.59375 12.988281 36.441406 L 36.308594 13.121094 L 36.871094 13.589844 Z "></path>
    <path style=" fill:#C5E4FA;" d="M 52.078125 28.460938 L 35.078125 11.460938 C 34.703125 11.085938 34.492188 10.574219 34.492188 10.046875 C 34.492188 9.515625 34.703125 9.003906 35.078125 8.628906 C 35.457031 8.253906 35.964844 8.042969 36.496094 8.042969 C 37.027344 8.042969 37.535156 8.253906 37.910156 8.628906 L 54.910156 25.628906 C 55.285156 26.003906 55.496094 26.515625 55.496094 27.046875 C 55.496094 27.574219 55.285156 28.085938 54.910156 28.460938 C 54.535156 28.835938 54.027344 29.046875 53.496094 29.046875 C 52.964844 29.046875 52.457031 28.835938 52.078125 28.460938 Z "></path>
    <path style=" fill:#ACB7D0;" d="M 59.148438 15.730469 L 47.839844 4.410156 C 47.464844 4.035156 47.253906 3.527344 47.253906 2.996094 C 47.253906 2.464844 47.464844 1.957031 47.839844 1.578125 C 48.214844 1.203125 48.722656 0.992188 49.253906 0.992188 C 49.785156 0.992188 50.292969 1.203125 50.671875 1.578125 L 62 12.898438 C 62.375 13.273438 62.585938 13.785156 62.585938 14.316406 C 62.585938 14.847656 62.375 15.355469 62 15.730469 C 61.625 16.113281 61.109375 16.328125 60.574219 16.328125 C 60.039063 16.328125 59.527344 16.113281 59.148438 15.730469 Z "></path>
    <path style=" fill:#e2d6c4;" d="M 50.660156 7.246094 L 56.316406 12.902344 L 49.246094 19.976563 L 43.589844 14.316406 Z "></path>
    <path style=" fill:#e2d6c4;" d="M 18.851563 50.378906 L 16.730469 52.5 C 16.355469 52.875 15.847656 53.085938 15.316406 53.085938 C 14.785156 53.085938 14.273438 52.875 13.898438 52.5 L 11.070313 49.671875 C 10.695313 49.292969 10.484375 48.785156 10.484375 48.253906 C 10.484375 47.722656 10.695313 47.214844 11.070313 46.839844 L 13.191406 44.71875 "></path>
    <path style=" fill:#474c55;" d="M 19.558594 35.53125 C 19.164063 35.191406 18.570313 35.214844 18.203125 35.582031 C 17.832031 35.953125 17.808594 36.542969 18.148438 36.941406 L 22.390625 41.179688 C 22.785156 41.519531 23.378906 41.496094 23.746094 41.128906 C 24.117188 40.757813 24.140625 40.167969 23.800781 39.769531 Z "></path>
    <path style=" fill:#474c55;" d="M 23.089844 32 C 22.691406 31.660156 22.101563 31.683594 21.734375 32.050781 C 21.363281 32.421875 21.339844 33.011719 21.679688 33.410156 L 23.089844 34.820313 C 23.488281 35.160156 24.078125 35.136719 24.449219 34.765625 C 24.816406 34.398438 24.839844 33.808594 24.5 33.410156 Z "></path>
    <path style=" fill:#474c55;" d="M 16 39.058594 C 15.601563 38.71875 15.011719 38.742188 14.640625 39.113281 C 14.273438 39.480469 14.25 40.074219 14.589844 40.46875 L 16 41.890625 C 16.398438 42.230469 16.988281 42.207031 17.359375 41.835938 C 17.726563 41.46875 17.75 40.875 17.410156 40.480469 Z "></path>
    <path style=" fill:#474c55;" d="M 26.628906 28.460938 C 26.234375 28.121094 25.640625 28.144531 25.273438 28.511719 C 24.902344 28.882813 24.878906 29.472656 25.21875 29.871094 L 29.460938 34.109375 C 29.855469 34.449219 30.449219 34.425781 30.816406 34.058594 C 31.1875 33.6875 31.210938 33.097656 30.871094 32.699219 Z "></path>
    <path style=" fill:#474c55;" d="M 30.160156 24.921875 C 29.761719 24.582031 29.171875 24.601563 28.800781 24.972656 C 28.433594 25.34375 28.410156 25.933594 28.75 26.328125 L 30.160156 27.738281 C 30.558594 28.078125 31.148438 28.058594 31.515625 27.6875 C 31.886719 27.316406 31.910156 26.726563 31.570313 26.328125 Z "></path>
    <path style=" fill:#474c55;" d="M 33.699219 21.378906 C 33.304688 21.039063 32.710938 21.0625 32.34375 21.433594 C 31.972656 21.800781 31.949219 22.394531 32.289063 22.789063 L 36.53125 27 C 36.925781 27.339844 37.519531 27.316406 37.886719 26.949219 C 38.257813 26.578125 38.28125 25.988281 37.941406 25.589844 Z "></path>
    <path style=" fill:#474c55;" d="M 35.820313 17.851563 C 35.433594 18.238281 35.433594 18.871094 35.820313 19.261719 L 37.230469 20.671875 C 37.625 21.011719 38.21875 20.988281 38.585938 20.617188 C 38.957031 20.25 38.980469 19.65625 38.640625 19.261719 L 37.230469 17.851563 C 36.839844 17.460938 36.210938 17.460938 35.820313 17.851563 Z "></path>
    <path style=" fill:#474c55;" d="M 62.691406 12.191406 L 51.378906 0.878906 C 50.632813 0.078125 49.503906 -0.253906 48.441406 0.0195313 C 47.378906 0.289063 46.550781 1.121094 46.277344 2.183594 C 46.007813 3.246094 46.335938 4.371094 47.140625 5.121094 L 49.261719 7.238281 L 43.601563 12.898438 L 38.648438 7.949219 C 37.902344 7.148438 36.777344 6.816406 35.710938 7.089844 C 34.648438 7.359375 33.820313 8.191406 33.546875 9.253906 C 33.277344 10.316406 33.605469 11.441406 34.410156 12.191406 L 35.121094 12.898438 L 12.28125 35.730469 C 10.832031 37.175781 10.414063 39.359375 11.21875 41.238281 L 11.878906 42.769531 C 12.058594 43.199219 12.269531 43.609375 12.488281 44.019531 L 10.371094 46.140625 C 9.199219 47.3125 9.199219 49.207031 10.371094 50.378906 L 11.078125 51.089844 L 1.289063 60.859375 C 1.003906 61.105469 0.878906 61.488281 0.96875 61.851563 C 1.054688 62.21875 1.339844 62.503906 1.707031 62.59375 C 2.070313 62.679688 2.457031 62.554688 2.699219 62.269531 L 12.480469 52.488281 L 13.191406 53.199219 C 14.359375 54.371094 16.257813 54.371094 17.429688 53.199219 L 19.550781 51.078125 C 19.960938 51.300781 20.371094 51.5 20.800781 51.691406 L 22.328125 52.339844 C 24.207031 53.144531 26.386719 52.722656 27.828125 51.28125 L 50.671875 28.460938 L 51.378906 29.171875 C 52.128906 29.972656 53.253906 30.304688 54.316406 30.03125 C 55.378906 29.761719 56.210938 28.929688 56.480469 27.867188 C 56.753906 26.804688 56.421875 25.679688 55.621094 24.929688 L 50.671875 19.929688 L 56.328125 14.269531 L 58.449219 16.390625 C 59.632813 17.492188 61.472656 17.457031 62.617188 16.316406 C 63.757813 15.175781 63.792969 13.332031 62.691406 12.148438 Z M 16 51.789063 C 15.609375 52.175781 14.980469 52.175781 14.589844 51.789063 L 11.78125 49 C 11.390625 48.609375 11.390625 47.980469 11.78125 47.589844 L 13.550781 45.820313 C 14.703125 47.453125 16.140625 48.871094 17.789063 50 Z M 26.398438 49.871094 C 25.535156 50.738281 24.226563 50.992188 23.101563 50.511719 L 21.570313 49.859375 C 18.035156 48.347656 15.222656 45.535156 13.710938 42 L 13.050781 40.46875 C 12.570313 39.34375 12.824219 38.035156 13.691406 37.171875 L 36.53125 14.308594 L 49.25 27 Z M 54.199219 26.328125 C 54.59375 26.71875 54.59375 27.351563 54.203125 27.746094 C 53.816406 28.136719 53.183594 28.140625 52.789063 27.75 L 35.789063 10.75 C 35.398438 10.359375 35.394531 9.726563 35.785156 9.335938 C 36.175781 8.941406 36.808594 8.941406 37.199219 9.328125 L 42.148438 14.28125 L 49.21875 21.351563 Z M 49.25 18.550781 L 45 14.308594 L 50.660156 8.648438 L 52.78125 10.769531 L 54.898438 12.890625 Z M 61.25 15.011719 C 60.859375 15.398438 60.230469 15.398438 59.839844 15.011719 L 57.738281 12.898438 L 48.550781 3.710938 C 48.164063 3.320313 48.164063 2.691406 48.550781 2.300781 C 48.941406 1.914063 49.570313 1.914063 49.960938 2.300781 L 61.28125 13.609375 C 61.65625 13.996094 61.65625 14.613281 61.28125 15 Z "></path>
  </g>
</svg>
