<svg id="Layer_1" data-name="Layer 1" xmlns="http://www.w3.org/2000/svg" viewBox="0 0 512 474.57"><title>cancer</title><path d="M408.65,258.35A151.45,151.45,0,1,1,257.2,106.9,151.45,151.45,0,0,1,408.65,258.35Z" transform="translate(0 -19)" style="fill:#f4d7cb"/><path d="M135.74,258.35A151.47,151.47,0,0,1,272.2,107.63q-7.4-.73-15-.74a151.45,151.45,0,1,0,0,302.9q7.59,0,15-.74A151.47,151.47,0,0,1,135.74,258.35Z" transform="translate(0 -19)" style="fill:#d2bbb3"/><path d="M138.49,52.57A25.91,25.91,0,1,0,148,88,25.91,25.91,0,0,0,138.49,52.57Z" transform="translate(0 -19)" style="fill:#f4d7cb"/><path d="M133.21,62.05a25.81,25.81,0,0,1,7.38-8.12q-1-.72-2.11-1.36a25.91,25.91,0,1,0,2.11,43.52A25.92,25.92,0,0,1,133.21,62.05Z" transform="translate(0 -19)" style="fill:#d2bbb3"/><path d="M264.64,330.13A25.33,25.33,0,1,1,239.3,304.8,25.33,25.33,0,0,1,264.64,330.13Z" transform="translate(0 -19)" style="fill:#f4d7cb"/><path d="M241,330.13A25.31,25.31,0,0,1,252.8,308.7a25.34,25.34,0,1,0,0,42.87A25.31,25.31,0,0,1,241,330.13Z" transform="translate(0 -19)" style="fill:#d2bbb3"/><path d="M324.32,275.13A14.34,14.34,0,1,1,310,260.79,14.34,14.34,0,0,1,324.32,275.13Z" transform="translate(0 -19)" style="fill:#f25c5c"/><path d="M318.2,275.13a14.27,14.27,0,0,1,3.06-8.84,14.34,14.34,0,1,0,0,17.67A14.25,14.25,0,0,1,318.2,275.13Z" transform="translate(0 -19)" style="fill:#f4d7cb"/><path d="M255.51,210.59a28.9,28.9,0,1,1-28.91-28.91A28.9,28.9,0,0,1,255.51,210.59Z" transform="translate(0 -19)" style="fill:#f4d7cb"/><path d="M224.7,210.59A28.9,28.9,0,0,1,240.11,185a28.9,28.9,0,1,0,0,51.12A28.9,28.9,0,0,1,224.7,210.59Z" transform="translate(0 -19)" style="fill:#d2bbb3"/><path d="M188.54,266a12.19,12.19,0,1,1-12.19-12.19A12.19,12.19,0,0,1,188.54,266Z" transform="translate(0 -19)" style="fill:#f4d7cb"/><path d="M328.59,198.17a16.49,16.49,0,1,1-16.49-16.49A16.49,16.49,0,0,1,328.59,198.17Z" transform="translate(0 -19)" style="fill:#f25c5c"/><path d="M322.6,198.17a16.41,16.41,0,0,1,3-9.45,16.49,16.49,0,1,0,0,18.91A16.41,16.41,0,0,1,322.6,198.17Z" transform="translate(0 -19)" style="fill:#d2bbb3"/><path d="M361,30.28a25.91,25.91,0,1,0,9.48,35.39A25.91,25.91,0,0,0,361,30.28Z" transform="translate(0 -19)" style="fill:#f4d7cb"/><path d="M355.76,39.75a25.78,25.78,0,0,1,7.38-8.13q-1-.72-2.11-1.36a25.91,25.91,0,1,0,2.11,43.52A25.91,25.91,0,0,1,355.76,39.75Z" transform="translate(0 -19)" style="fill:#d2bbb3"/><path d="M491.61,211.71a25.91,25.91,0,1,0,9.48,35.39A25.91,25.91,0,0,0,491.61,211.71Z" transform="translate(0 -19)" style="fill:#f4d7cb"/><path d="M486.34,221.18a25.76,25.76,0,0,1,7.38-8.12c-.67-.48-1.37-.94-2.11-1.36a25.91,25.91,0,1,0,2.11,43.52A25.91,25.91,0,0,1,486.34,221.18Z" transform="translate(0 -19)" style="fill:#d2bbb3"/><path d="M399.64,415.73a25.91,25.91,0,1,0,9.48,35.39A25.9,25.9,0,0,0,399.64,415.73Z" transform="translate(0 -19)" style="fill:#f4d7cb"/><path d="M394.38,425.21a25.82,25.82,0,0,1,7.38-8.13c-.68-.48-1.37-.93-2.11-1.36a25.91,25.91,0,1,0,2.11,43.52A25.91,25.91,0,0,1,394.38,425.21Z" transform="translate(0 -19)" style="fill:#d2bbb3"/><path d="M177.1,438a25.91,25.91,0,1,0,9.48,35.39A25.91,25.91,0,0,0,177.1,438Z" transform="translate(0 -19)" style="fill:#f4d7cb"/><path d="M171.84,447.51a25.78,25.78,0,0,1,7.38-8.13q-1-.72-2.11-1.36a25.91,25.91,0,1,0,2.11,43.52A25.91,25.91,0,0,1,171.84,447.51Z" transform="translate(0 -19)" style="fill:#d2bbb3"/><path d="M46.52,256.45A25.91,25.91,0,1,0,56,291.84,25.91,25.91,0,0,0,46.52,256.45Z" transform="translate(0 -19)" style="fill:#f4d7cb"/><path d="M41.26,265.93a25.78,25.78,0,0,1,7.38-8.13c-.68-.48-1.37-.93-2.11-1.36A25.91,25.91,0,1,0,48.64,300,25.91,25.91,0,0,1,41.26,265.93Z" transform="translate(0 -19)" style="fill:#d2bbb3"/><path d="M507.5,217.28c-15.88-27.5-58.22-19.3-62.11,12.75l-31.26,3.35a159,159,0,0,0-86.5-117.79l13.5-30.49a33.51,33.51,0,1,0-13.61-6.32l-13.63,30.79a158,158,0,0,0-35.08-9,7.5,7.5,0,0,0-2,14.86c70.85,9.68,124.27,71,124.27,142.61,0,101.86-103.75,172-198.34,133.27l4.44-10a7.5,7.5,0,1,0-13.71-6.07l-4.29,9.69A144.3,144.3,0,0,1,114.53,278l10.36-1.11a7.5,7.5,0,1,0-1.6-14.91l-10,1.08A143.52,143.52,0,0,1,167.08,145.4l5.65,7.74a7.5,7.5,0,1,0,12.11-8.84l-5.55-7.61a144,144,0,0,1,64.21-21.94,7.5,7.5,0,1,0-1.4-14.93,158.19,158.19,0,0,0-71.55,24.9L150.32,97A33.41,33.41,0,1,0,96.5,58c-15.91,27.56,12.22,59.55,41.55,47.62l20.32,27.84A158.69,158.69,0,0,0,98.29,264.63l-33.07,3.55c-10.33-31.3-55.41-30.35-64,1.76-7.79,29.05,23.63,52.21,49,37.58a33.22,33.22,0,0,0,16.39-24.4l33-3.55a159.33,159.33,0,0,0,83.44,119.09l-12.7,28.7a33.45,33.45,0,1,0,13.72,6.07L196.63,405a158.72,158.72,0,0,0,146.78-13.58L361.33,416a33.3,33.3,0,0,0-7,30.5c7.64,28.5,46.27,33.93,61.2,8.06,16-27.76-12.66-60-42.09-47.41L355.6,382.7a158.67,158.67,0,0,0,60.14-134.41L447,244.94a33.41,33.41,0,0,0,31.62,22.45C504.28,267.39,520.3,239.47,507.5,217.28ZM348,34a18.41,18.41,0,1,1-18.41,18.41A18.43,18.43,0,0,1,348,34ZM116.23,90.65a18.41,18.41,0,1,1,25.15-6.74A18.43,18.43,0,0,1,116.23,90.65ZM42.68,294.53a18.41,18.41,0,1,1-9.24-34.35C52.23,260.18,58.93,285.15,42.68,294.53Zm121.38,184a18.41,18.41,0,1,1,18.41-18.41A18.43,18.43,0,0,1,164.06,478.57Zm222.57-59.12a18.41,18.41,0,1,1-9.23,34.35C361.18,444.44,367.83,419.46,386.63,419.46ZM487.77,249.93a18.41,18.41,0,1,1-9.23-34.35C497.31,215.58,504,240.55,487.77,249.93Z" transform="translate(0 -19)" style="fill:#464c55"/><path d="M239.21,297A32.83,32.83,0,1,0,272,329.83,32.87,32.87,0,0,0,239.21,297Zm0,50.66A17.83,17.83,0,1,1,257,329.83,17.85,17.85,0,0,1,239.21,347.66Z" transform="translate(0 -19)" style="fill:#464c55"/><path d="M309.88,253a21.84,21.84,0,1,0,21.84,21.84A21.86,21.86,0,0,0,309.88,253Zm0,28.68a6.84,6.84,0,1,1,6.84-6.84A6.85,6.85,0,0,1,309.88,281.67Z" transform="translate(0 -19)" style="fill:#d2bbb3"/><path d="M156.56,265.75a19.69,19.69,0,1,0,19.69-19.69A19.71,19.71,0,0,0,156.56,265.75Zm24.38,0a4.69,4.69,0,1,1-4.69-4.69A4.69,4.69,0,0,1,180.94,265.75Z" transform="translate(0 -19)" style="fill:#d2bbb3"/><path d="M312,173.89a24,24,0,1,0,24,24A24,24,0,0,0,312,173.89Zm0,33a9,9,0,1,1,9-9A9,9,0,0,1,312,206.87Z" transform="translate(0 -19)" style="fill:#464c55"/><path d="M312.89,315.38l-4.9,4.9a7.5,7.5,0,0,0,10.61,10.61l4.9-4.9a7.5,7.5,0,1,0-10.61-10.6Z" transform="translate(0 -19)" style="fill:#464c55"/><path d="M255.25,263.72l5.13,4.66a7.5,7.5,0,1,0,10.09-11.1l-5.12-4.66a7.5,7.5,0,1,0-10.09,11.09Z" transform="translate(0 -19)" style="fill:#464c55"/><path d="M190.11,210.29c0,33.86,42.36,49.22,64.16,23.54a7.5,7.5,0,1,0-11.43-9.7c-12.86,15.15-37.73,6-37.73-13.84,0-21,27.25-29.35,39.08-12.07a7.5,7.5,0,0,0,12.38-8.47C236.47,160.4,190.11,174.54,190.11,210.29Z" transform="translate(0 -19)" style="fill:#464c55"/></svg>
