<svg xmlns="http://www.w3.org/2000/svg" x="0px" y="0px" width="100" height="100" viewBox="0 0 100 100" style=";fill:#000000;">

<style type="text/css">
	.st0{fill:#F27788;}
	.st1{fill:#454B54;}
	.st2{opacity:0.1;fill:#030303;enable-background:new    ;}
</style>
<path class="st0" d="M30,12.8c7.9,0,14.9,3.4,19.8,8.8c4.8-5.4,11.9-8.8,19.8-8.8C84.2,12.8,96,24.3,96,38.6
	c0,8.1-3.8,15.3-9.8,20.1l0,0L49.8,86.9L14.1,59.2l0,0C7.7,54.4,3.6,47,3.6,38.6C3.6,24.3,15.4,12.8,30,12.8z"/>
<path class="st1" d="M49.8,90.2c-0.7,0-1.4-0.2-2-0.7L12,61.8c-0.1-0.1-0.2-0.2-0.3-0.2c-7.1-5.6-11.3-14-11.3-23
	c0-16,13.3-29.1,29.7-29.1c7.4,0,14.4,2.6,19.8,7.5c5.4-4.7,12.4-7.5,19.8-7.5c16.4,0,29.7,13.1,29.7,29.1c0,8.8-4,16.9-10.8,22.5
	c-0.1,0.1-0.1,0.1-0.2,0.2L51.8,89.6C51.2,89.9,50.5,90.2,49.8,90.2z M16.4,56.9l33.4,25.9l34.3-26.6l0.1-0.1
	c5.4-4.3,8.5-10.7,8.5-17.5c0-12.4-10.3-22.5-23.1-22.5c-6.6,0-13,2.9-17.4,7.7c-1.2,1.4-3.6,1.4-4.9,0c-4.4-4.9-10.7-7.7-17.4-7.7
	c-12.7,0-23.1,10.1-23.1,22.5c0,7,3.3,13.6,9.1,17.9C16.2,56.6,16.3,56.8,16.4,56.9z"/>
<g>
	<path class="st2" d="M11.2,41.9c-1.9,0-3.3-1.4-3.3-3.3C7.9,26.6,17.8,17,30,17c1.9,0,3.3,1.4,3.3,3.3s-1.4,3.3-3.3,3.3
		c-8.6,0-15.5,6.7-15.5,15.1C14.5,40.5,13.1,41.9,11.2,41.9z"/>
</g>
</svg>
