<svg xmlns="http://www.w3.org/2000/svg" x="0px" y="0px"
     width="100" height="100"
     viewBox="0 0 64 64"
     style=";fill:#000000;"
     class="icon icons8-hospital-3">
     <g id="surface1">
     <path style=" fill:#FAEFDE;" d="M 57 27 L 33 7 L 9 27 L 9 55 L 57 55 Z "></path>
     <path style=" fill:#EFD8BE;" d="M 33 7 L 9 27 L 9 28.730469 C 9 29.507813 9.445313 30.214844 10.148438 30.542969 C 10.851563 30.875 11.683594 30.765625 12.28125 30.269531 L 32.359375 13.53125 C 32.730469 13.222656 33.269531 13.222656 33.640625 13.53125 L 53.71875 30.269531 C 54.316406 30.765625 55.148438 30.875 55.851563 30.542969 C 56.554688 30.214844 57 29.507813 57 28.730469 L 57 27 Z "></path>
     <path style=" fill:#e2d6c4;" d="M 9 45 L 57 45 L 57 55 L 9 55 Z "></path>
     <path style=" fill:#ED7899;" d="M 42 25 L 38 25 C 37.449219 25 37 24.550781 37 24 L 37 20 C 37 19.449219 36.550781 19 36 19 L 30 19 C 29.449219 19 29 19.449219 29 20 L 29 24 C 29 24.550781 28.550781 25 28 25 L 24 25 C 23.449219 25 23 25.449219 23 26 L 23 32 C 23 32.550781 23.449219 33 24 33 L 28 33 C 28.550781 33 29 33.449219 29 34 L 29 38 C 29 38.550781 29.449219 39 30 39 L 36 39 C 36.550781 39 37 38.550781 37 38 L 37 34 C 37 33.449219 37.449219 33 38 33 L 42 33 C 42.550781 33 43 32.550781 43 32 L 43 26 C 43 25.449219 42.550781 25 42 25 Z "></path>
     <path style=" fill:#474c55;" d="M 61.359375 31.769531 C 61.785156 32.125 62.417969 32.066406 62.769531 31.640625 C 63.125 31.214844 63.066406 30.582031 62.640625 30.230469 L 33.640625 6.230469 L 33.550781 6.179688 L 33.191406 6 L 32.820313 6 L 32.628906 6.058594 L 32.460938 6.148438 L 32.371094 6.199219 L 3.371094 30.199219 C 2.945313 30.554688 2.886719 31.183594 3.238281 31.609375 C 3.59375 32.035156 4.226563 32.09375 4.648438 31.738281 L 8 29 L 8 54 L 5 54 C 4.449219 54 4 54.449219 4 55 C 4 55.550781 4.449219 56 5 56 L 61 56 C 61.550781 56 62 55.550781 62 55 C 62 54.449219 61.550781 54 61 54 L 58 54 L 58 29 Z M 56 54 L 10 54 L 10 46 L 56 46 Z M 56 44 L 10 44 L 10 27.328125 L 33 8.328125 L 56 27.328125 Z "></path>
     <path style=" fill:#474c55;" d="M 18 52 C 18.550781 52 19 51.550781 19 51 L 19 49 C 19 48.449219 18.550781 48 18 48 C 17.449219 48 17 48.449219 17 49 L 17 51 C 17 51.550781 17.449219 52 18 52 Z "></path>
     <path style=" fill:#474c55;" d="M 13 52 C 13.550781 52 14 51.550781 14 51 L 14 49 C 14 48.449219 13.550781 48 13 48 C 12.449219 48 12 48.449219 12 49 L 12 51 C 12 51.550781 12.449219 52 13 52 Z "></path>
     <path style=" fill:#474c55;" d="M 23 52 C 23.550781 52 24 51.550781 24 51 L 24 49 C 24 48.449219 23.550781 48 23 48 C 22.449219 48 22 48.449219 22 49 L 22 51 C 22 51.550781 22.449219 52 23 52 Z "></path>
     <path style=" fill:#474c55;" d="M 28 52 C 28.550781 52 29 51.550781 29 51 L 29 49 C 29 48.449219 28.550781 48 28 48 C 27.449219 48 27 48.449219 27 49 L 27 51 C 27 51.550781 27.449219 52 28 52 Z "></path>
     <path style=" fill:#474c55;" d="M 33 52 C 33.550781 52 34 51.550781 34 51 L 34 49 C 34 48.449219 33.550781 48 33 48 C 32.449219 48 32 48.449219 32 49 L 32 51 C 32 51.550781 32.449219 52 33 52 Z "></path>
     <path style=" fill:#474c55;" d="M 38 52 C 38.550781 52 39 51.550781 39 51 L 39 49 C 39 48.449219 38.550781 48 38 48 C 37.449219 48 37 48.449219 37 49 L 37 51 C 37 51.550781 37.449219 52 38 52 Z "></path>
     <path style=" fill:#474c55;" d="M 43 52 C 43.550781 52 44 51.550781 44 51 L 44 49 C 44 48.449219 43.550781 48 43 48 C 42.449219 48 42 48.449219 42 49 L 42 51 C 42 51.550781 42.449219 52 43 52 Z "></path>
     <path style=" fill:#474c55;" d="M 48 52 C 48.550781 52 49 51.550781 49 51 L 49 49 C 49 48.449219 48.550781 48 48 48 C 47.449219 48 47 48.449219 47 49 L 47 51 C 47 51.550781 47.449219 52 48 52 Z "></path>
     <path style=" fill:#474c55;" d="M 53 52 C 53.550781 52 54 51.550781 54 51 L 54 49 C 54 48.449219 53.550781 48 53 48 C 52.449219 48 52 48.449219 52 49 L 52 51 C 52 51.550781 52.449219 52 53 52 Z "></path>
     <path style=" fill:#474c55;" d="M 28 20 L 28 24 L 24 24 C 22.894531 24 22 24.894531 22 26 L 22 32 C 22 33.105469 22.894531 34 24 34 L 28 34 L 28 38 C 28 39.105469 28.894531 40 30 40 L 36 40 C 37.105469 40 38 39.105469 38 38 L 38 34 L 42 34 C 43.105469 34 44 33.105469 44 32 L 44 26 C 44 24.894531 43.105469 24 42 24 L 38 24 L 38 20 C 38 18.894531 37.105469 18 36 18 L 30 18 C 28.894531 18 28 18.894531 28 20 Z M 38 26 L 42 26 L 42 32 L 38 32 C 36.894531 32 36 32.894531 36 34 L 36 38 L 30 38 L 30 34 C 30 32.894531 29.105469 32 28 32 L 24 32 L 24 26 L 28 26 C 29.105469 26 30 25.105469 30 24 L 30 20 L 36 20 L 36 24 C 36 25.105469 36.894531 26 38 26 Z "></path>
   </g>
 </svg>
