<svg xmlns="http://www.w3.org/2000/svg" x="0px" y="0px"
     width="100" height="100"
     viewBox="0 0 64 64"
     style=";fill:#000000;"
     class="icon icons8-doctors-bag">
     <g id="surface1">
     <path style=" fill:#FAEFDE;" d="M 5 15 L 59 15 C 60.105469 15 61 15.894531 61 17 L 61 55 C 61 56.105469 60.105469 57 59 57 L 5 57 C 3.894531 57 3 56.105469 3 55 L 3 17 C 3 15.894531 3.894531 15 5 15 Z "></path>
     <path style=" fill:#CDA1A7;" d="M 5 15 L 59 15 C 60.105469 15 61 15.894531 61 17 L 61 25 L 3 25 L 3 17 C 3 15.894531 3.894531 15 5 15 Z "></path>
     <path style=" fill:#e2d6c4;" d="M 61 56 C 61 56.550781 60.550781 57 60 57 L 4 57 C 3.449219 57 3 56.550781 3 56 C 3 53.789063 4.789063 52 7 52 L 57 52 C 59.210938 52 61 53.789063 61 56 Z "></path>
     <path style=" fill:#CDA1A7;" d="M 41 15 L 37 15 L 36.429688 11 L 27.628906 11 L 27 15 L 23 15 L 23 11 C 23 8.789063 24.789063 7 27 7 L 37 7 C 39.210938 7 41 8.789063 41 11 Z "></path>
     <path style=" fill:#ed7799;" d="M 40 35 L 36 35 C 35.449219 35 35 34.550781 35 34 L 35 30 C 35 29.449219 34.550781 29 34 29 L 30 29 C 29.449219 29 29 29.449219 29 30 L 29 34 C 29 34.550781 28.550781 35 28 35 L 24 35 C 23.449219 35 23 35.449219 23 36 L 23 40 C 23 40.550781 23.449219 41 24 41 L 28 41 C 28.550781 41 29 41.449219 29 42 L 29 46 C 29 46.550781 29.449219 47 30 47 L 34 47 C 34.550781 47 35 46.550781 35 46 L 35 42 C 35 41.449219 35.449219 41 36 41 L 40 41 C 40.550781 41 41 40.550781 41 40 L 41 36 C 41 35.449219 40.550781 35 40 35 Z "></path>
     <path style=" fill:#e2d6c4;" d="M 13 23 L 17 23 C 18.105469 23 19 23.894531 19 25 C 19 26.105469 18.105469 27 17 27 L 13 27 C 11.894531 27 11 26.105469 11 25 C 11 23.894531 11.894531 23 13 23 Z "></path>
     <path style=" fill:#e2d6c4;" d="M 47 23 L 51 23 C 52.105469 23 53 23.894531 53 25 C 53 26.105469 52.105469 27 51 27 L 47 27 C 45.894531 27 45 26.105469 45 25 C 45 23.894531 45.894531 23 47 23 Z "></path>
     <path style=" fill:#474c55;" d="M 59 14 L 42 14 L 42 11 C 42 8.238281 39.761719 6 37 6 L 27 6 C 24.238281 6 22 8.238281 22 11 L 22 14 L 5 14 C 3.34375 14 2 15.34375 2 17 L 2 55 C 2 56.65625 3.34375 58 5 58 L 59 58 C 60.65625 58 62 56.65625 62 55 L 62 17 C 62 15.34375 60.65625 14 59 14 Z M 24 11 C 24 9.34375 25.34375 8 27 8 L 37 8 C 38.65625 8 40 9.34375 40 11 L 40 14 L 38 14 L 38 12 C 38 10.894531 37.105469 10 36 10 L 28 10 C 26.894531 10 26 10.894531 26 12 L 26 14 L 24 14 Z M 36 14 L 28 14 L 28 12 L 36 12 Z M 5 16 L 59 16 C 59.550781 16 60 16.449219 60 17 L 60 24 L 53.820313 24 C 53.398438 22.804688 52.269531 22.003906 51 22 L 47 22 C 45.730469 22.003906 44.601563 22.804688 44.179688 24 L 19.820313 24 C 19.398438 22.804688 18.269531 22.003906 17 22 L 13 22 C 11.730469 22.003906 10.601563 22.804688 10.179688 24 L 4 24 L 4 17 C 4 16.449219 4.449219 16 5 16 Z M 52 25 C 52 25.550781 51.550781 26 51 26 L 47 26 C 46.449219 26 46 25.550781 46 25 C 46 24.449219 46.449219 24 47 24 L 51 24 C 51.550781 24 52 24.449219 52 25 Z M 18 25 C 18 25.550781 17.550781 26 17 26 L 13 26 C 12.449219 26 12 25.550781 12 25 C 12 24.449219 12.449219 24 13 24 L 17 24 C 17.550781 24 18 24.449219 18 25 Z M 60 55 C 60 55.550781 59.550781 56 59 56 L 5 56 C 4.449219 56 4 55.550781 4 55 L 4 26 L 10.179688 26 C 10.601563 27.195313 11.730469 27.996094 13 28 L 17 28 C 18.269531 27.996094 19.398438 27.195313 19.820313 26 L 44.179688 26 C 44.601563 27.195313 45.730469 27.996094 47 28 L 51 28 C 52.269531 27.996094 53.398438 27.195313 53.820313 26 L 60 26 Z "></path>
     <path style=" fill:#474c55;" d="M 42 40 L 42 36 C 42 34.894531 41.105469 34 40 34 L 36 34 L 36 30 C 36 28.894531 35.105469 28 34 28 L 30 28 C 28.894531 28 28 28.894531 28 30 L 28 34 L 24 34 C 22.894531 34 22 34.894531 22 36 L 22 40 C 22 41.105469 22.894531 42 24 42 L 28 42 L 28 46 C 28 47.105469 28.894531 48 30 48 L 34 48 C 35.105469 48 36 47.105469 36 46 L 36 42 L 40 42 C 41.105469 42 42 41.105469 42 40 Z M 40 40 L 36 40 C 34.894531 40 34 40.894531 34 42 L 34 46 L 30 46 L 30 42 C 30 40.894531 29.105469 40 28 40 L 24 40 L 24 36 L 28 36 C 29.105469 36 30 35.105469 30 34 L 30 30 L 34 30 L 34 34 C 34 35.105469 34.894531 36 36 36 L 40 36 Z "></path>
     <path style=" fill:#474c55;" d="M 17 50 C 16.449219 50 16 50.449219 16 51 L 16 53 C 16 53.550781 16.449219 54 17 54 C 17.550781 54 18 53.550781 18 53 L 18 51 C 18 50.449219 17.550781 50 17 50 Z "></path>
     <path style=" fill:#474c55;" d="M 12 50 C 11.449219 50 11 50.449219 11 51 L 11 53 C 11 53.550781 11.449219 54 12 54 C 12.550781 54 13 53.550781 13 53 L 13 51 C 13 50.449219 12.550781 50 12 50 Z "></path>
     <path style=" fill:#474c55;" d="M 7 50 C 6.449219 50 6 50.449219 6 51 L 6 53 C 6 53.550781 6.449219 54 7 54 C 7.550781 54 8 53.550781 8 53 L 8 51 C 8 50.449219 7.550781 50 7 50 Z "></path>
     <path style=" fill:#474c55;" d="M 32 50 C 31.449219 50 31 50.449219 31 51 L 31 53 C 31 53.550781 31.449219 54 32 54 C 32.550781 54 33 53.550781 33 53 L 33 51 C 33 50.449219 32.550781 50 32 50 Z "></path>
     <path style=" fill:#474c55;" d="M 22 50 C 21.449219 50 21 50.449219 21 51 L 21 53 C 21 53.550781 21.449219 54 22 54 C 22.550781 54 23 53.550781 23 53 L 23 51 C 23 50.449219 22.550781 50 22 50 Z "></path>
     <path style=" fill:#474c55;" d="M 27 50 C 26.449219 50 26 50.449219 26 51 L 26 53 C 26 53.550781 26.449219 54 27 54 C 27.550781 54 28 53.550781 28 53 L 28 51 C 28 50.449219 27.550781 50 27 50 Z "></path>
     <path style=" fill:#474c55;" d="M 37 50 C 36.449219 50 36 50.449219 36 51 L 36 53 C 36 53.550781 36.449219 54 37 54 C 37.550781 54 38 53.550781 38 53 L 38 51 C 38 50.449219 37.550781 50 37 50 Z "></path>
     <path style=" fill:#474c55;" d="M 52 50 C 51.449219 50 51 50.449219 51 51 L 51 53 C 51 53.550781 51.449219 54 52 54 C 52.550781 54 53 53.550781 53 53 L 53 51 C 53 50.449219 52.550781 50 52 50 Z "></path>
     <path style=" fill:#474c55;" d="M 42 50 C 41.449219 50 41 50.449219 41 51 L 41 53 C 41 53.550781 41.449219 54 42 54 C 42.550781 54 43 53.550781 43 53 L 43 51 C 43 50.449219 42.550781 50 42 50 Z "></path>
     <path style=" fill:#474c55;" d="M 47 50 C 46.449219 50 46 50.449219 46 51 L 46 53 C 46 53.550781 46.449219 54 47 54 C 47.550781 54 48 53.550781 48 53 L 48 51 C 48 50.449219 47.550781 50 47 50 Z "></path>
     <path style=" fill:#474c55;" d="M 57 54 C 57.550781 54 58 53.550781 58 53 L 58 51 C 58 50.449219 57.550781 50 57 50 C 56.449219 50 56 50.449219 56 51 L 56 53 C 56 53.550781 56.449219 54 57 54 Z "></path>
   </g>
 </svg>
