<svg xmlns="http://www.w3.org/2000/svg" x="0px" y="0px"
     width="100" height="100"
     viewBox="0 0 64 64"
     style=";fill:#000000;"
     class="icon icons8-doctor-female"><g id="surface1"><path style=" fill:#f4d7cb;" d="M 20.289063 31.898438 C 20.011719 31.898438 19.101563 31.148438 18.628906 29.390625 C 18.160156 27.628906 18.628906 26.390625 18.800781 26.390625 C 18.800781 26.390625 20.519531 26.089844 20.539063 25.75 C 20.5625 25.253906 20.613281 24.757813 20.699219 24.269531 C 20.75 23.746094 20.722656 23.21875 20.621094 22.699219 C 20.480469 21.628906 20.898438 21.359375 21.121094 19.128906 C 21.429688 16.070313 34.699219 15.511719 39.230469 16.410156 C 39.730469 16.511719 42.140625 20.671875 42.578125 21.851563 C 43.089844 23.089844 43.382813 24.410156 43.441406 25.75 C 43.441406 25.898438 43.769531 25.871094 44.140625 25.75 C 44.511719 25.628906 45.578125 26.488281 45.570313 27.671875 C 45.566406 28.246094 45.496094 28.820313 45.351563 29.378906 C 44.863281 30.71875 44.117188 31.949219 43.148438 33 C 40.71875 39.511719 41.148438 36.519531 40.679688 37.308594 C 38.570313 40.820313 35.46875 43.5 32 43.5 C 27 43.5 22.820313 38.011719 21.210938 32.589844 C 21.078125 32.1875 20.710938 31.914063 20.289063 31.898438 Z "></path><path style=" fill:#F9E3AE;" d="M 43 26 C 43 26 43.878906 23 43 22.839844 C 40.554688 22.265625 38.570313 20.480469 37.738281 18.109375 C 34.859375 19.109375 35.738281 21.28125 23.960938 20.699219 C 23.460938 20.699219 21.511719 23.039063 20.960938 23 C 21.464844 23.570313 21.464844 24.429688 20.960938 25 C 19.589844 26.671875 17.21875 29.789063 19.960938 33 C 21.03125 34.25 23.121094 35.640625 22.960938 37 C 22.660156 39.558594 11.691406 43 11.578125 43 C 11.230469 43 10.859375 40.25 10.960938 40 C 14.359375 32.929688 16.960938 22 16.960938 22 L 18.558594 18.539063 C 19.5 16.980469 21.179688 16.019531 23 16 L 33 15 C 38.828125 15 40 17 43 16 C 45.398438 15.199219 51.148438 35.789063 51 37 C 51 37 53.449219 38.371094 54 40 C 54.441406 41.328125 53 43 53 43 C 53 43 42.480469 39.269531 40.128906 37.339844 C 39.640625 36.941406 43.25 31.511719 44.660156 30.339844 C 45.402344 29.382813 45.535156 28.085938 45 27 C 43.859375 25.691406 43 26 43 26 Z "></path><path style=" fill:#C5E4FA;" d="M 61 59.378906 C 61 59.933594 60.550781 60.378906 60 60.378906 L 4 60.378906 C 3.449219 60.378906 3 59.933594 3 59.378906 L 3 52.378906 C 3.023438 48.804688 5.078125 45.554688 8.300781 44 L 22.371094 37.269531 C 24.921875 40.480469 28.28125 42.769531 32 42.769531 C 35.71875 42.769531 39.078125 40.480469 41.628906 37.269531 L 55.699219 44 C 58.929688 45.558594 60.988281 48.824219 61 52.410156 Z "></path><path style=" fill:#AFD7EF;" d="M 57 56 L 7 56 C 4.789063 56 3 57.789063 3 60 C 3 60.550781 3.449219 61 4 61 L 60 61 C 60.550781 61 61 60.550781 61 60 C 61 57.789063 59.210938 56 57 56 Z "></path><path style=" fill:#72CAAF;" d="M 35 60.421875 L 28.710938 60.421875 L 20.550781 38.140625 L 22.371094 37.269531 C 24.921875 40.480469 28.28125 42.769531 32 42.769531 C 35.71875 42.769531 39.078125 40.480469 41.628906 37.269531 L 43.140625 37.988281 Z "></path><path style=" fill:#E3F2FF;" d="M 39 60 L 47 51 L 44 47 L 46 40 L 43 39 L 35 60 Z "></path><path style=" fill:#E3F2FF;" d="M 25 61 L 17 51 L 20 47 L 18 40 L 21 39 L 29 60 Z "></path><path style=" fill:#C5E4FA;" d="M 44.441406 18.089844 L 38.359375 16.089844 C 34.234375 14.707031 29.773438 14.707031 25.648438 16.089844 L 19.570313 18.089844 C 19.238281 18.207031 18.871094 18.140625 18.601563 17.917969 C 18.332031 17.695313 18.199219 17.347656 18.25 17 L 20 5.671875 C 20.109375 4.863281 20.699219 4.199219 21.488281 4 L 24.238281 3.261719 C 29.328125 1.898438 34.683594 1.898438 39.769531 3.261719 L 42.511719 4 C 43.300781 4.199219 43.890625 4.863281 44 5.671875 L 45.75 17 C 45.800781 17.34375 45.667969 17.6875 45.398438 17.910156 C 45.132813 18.132813 44.769531 18.203125 44.441406 18.089844 Z "></path><path style=" fill:#BDC8DB;" d="M 37 11 C 37 13.761719 34.761719 16 32 16 C 29.238281 16 27 13.761719 27 11 C 27 8.238281 29.238281 6 32 6 C 34.761719 6 37 8.238281 37 11 Z "></path><path style=" fill:#474c55;" d="M 47 54 C 46.449219 54 46 54.449219 46 55 L 46 57 C 46 57.550781 46.449219 58 47 58 C 47.550781 58 48 57.550781 48 57 L 48 55 C 48 54.449219 47.550781 54 47 54 Z "></path><path style=" fill:#474c55;" d="M 52 54 C 51.449219 54 51 54.449219 51 55 L 51 57 C 51 57.550781 51.449219 58 52 58 C 52.550781 58 53 57.550781 53 57 L 53 55 C 53 54.449219 52.550781 54 52 54 Z "></path><path style=" fill:#474c55;" d="M 56 55 L 56 57 C 56 57.550781 56.449219 58 57 58 C 57.550781 58 58 57.550781 58 57 L 58 55 C 58 54.449219 57.550781 54 57 54 C 56.449219 54 56 54.449219 56 55 Z "></path><path style=" fill:#474c55;" d="M 17 54 C 16.449219 54 16 54.449219 16 55 L 16 57 C 16 57.550781 16.449219 58 17 58 C 17.550781 58 18 57.550781 18 57 L 18 55 C 18 54.449219 17.550781 54 17 54 Z "></path><path style=" fill:#474c55;" d="M 12 54 C 11.449219 54 11 54.449219 11 55 L 11 57 C 11 57.550781 11.449219 58 12 58 C 12.550781 58 13 57.550781 13 57 L 13 55 C 13 54.449219 12.550781 54 12 54 Z "></path><path style=" fill:#474c55;" d="M 7 54 C 6.449219 54 6 54.449219 6 55 L 6 57 C 6 57.550781 6.449219 58 7 58 C 7.550781 58 8 57.550781 8 57 L 8 55 C 8 54.449219 7.550781 54 7 54 Z "></path><path style=" fill:#474c55;" d="M 55.75 43.378906 L 54.46875 42.769531 C 54.648438 42.53125 54.789063 42.265625 54.878906 41.980469 C 55.125 41.183594 54.992188 40.316406 54.519531 39.628906 L 52.78125 37.089844 C 51.644531 35.433594 50.820313 33.582031 50.351563 31.628906 L 48.230469 22.769531 C 47.851563 21.203125 47.21875 19.710938 46.359375 18.351563 C 46.6875 17.921875 46.828125 17.375 46.75 16.839844 L 45 5.519531 C 44.816406 4.347656 43.957031 3.394531 42.808594 3.089844 L 40 2.351563 C 34.757813 0.953125 29.242188 0.953125 24 2.351563 L 21.25 3.089844 C 20.082031 3.375 19.195313 4.332031 19 5.519531 L 17.269531 16.828125 C 17.214844 17.230469 17.285156 17.640625 17.46875 18 C 16.796875 19.257813 16.300781 20.605469 16 22 L 13.808594 31.808594 C 13.367188 33.808594 12.558594 35.710938 11.429688 37.421875 L 10 39.648438 C 9.386719 40.550781 9.359375 41.722656 9.929688 42.648438 L 8.300781 43.429688 C 4.484375 45.246094 2.039063 49.078125 2 53.300781 L 2 59 C 2 60.65625 3.34375 62 5 62 L 59 62 C 60.65625 62 62 60.65625 62 59 L 62 53.300781 C 61.988281 49.070313 59.558594 45.21875 55.75 43.378906 Z M 21 5.828125 C 21.058594 5.425781 21.355469 5.097656 21.75 5 L 24.5 4.261719 C 29.414063 2.945313 34.585938 2.945313 39.5 4.261719 L 42.25 5 C 42.632813 5.101563 42.917969 5.417969 42.980469 5.808594 L 44.761719 17.128906 L 38.679688 15.128906 C 38.058594 14.921875 37.429688 14.761719 36.800781 14.621094 C 38.660156 12.144531 38.332031 8.660156 36.042969 6.578125 C 33.753906 4.492188 30.253906 4.492188 27.964844 6.578125 C 25.675781 8.660156 25.347656 12.144531 27.210938 14.621094 C 26.578125 14.761719 25.949219 14.929688 25.328125 15.128906 L 19.25 17.128906 Z M 28 11 C 28 8.789063 29.789063 7 32 7 C 34.210938 7 36 8.789063 36 11 C 36 13.210938 34.210938 15 32 15 C 29.789063 15 28 13.210938 28 11 Z M 11.53125 41.421875 C 11.460938 41.191406 11.496094 40.945313 11.628906 40.75 L 13.109375 38.5 C 14.371094 36.585938 15.273438 34.457031 15.769531 32.21875 L 18 22.410156 C 18.257813 21.269531 18.664063 20.164063 19.210938 19.128906 C 19.449219 19.144531 19.691406 19.113281 19.921875 19.039063 L 26 17 C 27.023438 16.660156 28.074219 16.410156 29.140625 16.25 C 30.945313 17.246094 33.136719 17.246094 34.941406 16.25 C 35.980469 16.414063 37.003906 16.664063 38 17 L 44.078125 19 C 44.191406 19.03125 44.304688 19.050781 44.421875 19.058594 C 45.261719 20.324219 45.875 21.722656 46.230469 23.199219 L 48.359375 32.058594 C 48.886719 34.25 49.8125 36.324219 51.089844 38.179688 L 52.828125 40.71875 C 52.960938 40.902344 52.996094 41.136719 52.929688 41.351563 C 52.859375 41.554688 52.707031 41.71875 52.511719 41.808594 L 42 36.789063 C 42.507813 35.828125 42.9375 34.824219 43.28125 33.789063 C 44.585938 33.066406 45.496094 31.796875 45.769531 30.328125 C 46.429688 27.859375 45.769531 25.761719 44.300781 25.328125 L 44.089844 25.328125 C 44.085938 24.640625 44.046875 23.953125 43.96875 23.269531 C 43.875 22.71875 43.347656 22.347656 42.796875 22.445313 C 42.242188 22.542969 41.875 23.066406 41.96875 23.621094 C 41.96875 23.890625 42.058594 25.328125 42.078125 25.941406 L 42.078125 26.601563 C 42.097656 26.957031 42.304688 27.277344 42.621094 27.4375 C 42.941406 27.601563 43.320313 27.582031 43.621094 27.390625 L 43.730469 27.320313 C 44.074219 28.117188 44.09375 29.015625 43.789063 29.828125 C 43.398438 31.28125 42.671875 31.941406 42.449219 31.96875 C 41.992188 31.949219 41.582031 32.242188 41.449219 32.679688 C 40.019531 37.480469 36.300781 42.339844 31.941406 42.339844 C 27.578125 42.339844 23.859375 37.480469 22.429688 32.679688 C 22.296875 32.242188 21.886719 31.949219 21.429688 31.96875 C 21.199219 31.96875 20.429688 31.28125 20.089844 29.828125 C 19.804688 29.015625 19.804688 28.125 20.089844 27.308594 C 20.152344 27.324219 20.207031 27.351563 20.261719 27.390625 C 20.558594 27.582031 20.941406 27.601563 21.257813 27.4375 C 21.574219 27.277344 21.78125 26.957031 21.800781 26.601563 L 21.800781 26.011719 C 21.800781 25.429688 21.871094 23.871094 21.921875 23.578125 C 22.015625 23.027344 21.648438 22.5 21.09375 22.40625 C 20.542969 22.308594 20.015625 22.675781 19.921875 23.230469 C 19.839844 23.925781 19.796875 24.621094 19.789063 25.320313 L 19.578125 25.320313 C 18.058594 25.730469 17.441406 27.820313 18.109375 30.320313 C 18.382813 31.785156 19.296875 33.054688 20.601563 33.78125 C 20.945313 34.8125 21.371094 35.816406 21.878906 36.78125 L 11.710938 41.730469 C 11.628906 41.640625 11.566406 41.535156 11.53125 41.421875 Z M 43.199219 47.601563 L 45.710938 50.949219 L 38.25 59.339844 C 38.089844 59.523438 38 59.757813 38 60 L 36.070313 60 L 43.738281 39.859375 L 44.851563 40.390625 L 43 46.730469 C 42.925781 47.035156 43 47.359375 43.199219 47.601563 Z M 25.480469 60 L 18.261719 51 L 20.800781 47.601563 C 20.984375 47.351563 21.042969 47.027344 20.960938 46.730469 L 19.148438 40.390625 L 20.261719 39.859375 L 27.929688 60 Z M 29.929688 59.640625 L 22.070313 39 L 23.070313 38.53125 C 25.269531 41.828125 28.441406 44.328125 32.019531 44.328125 C 35.601563 44.328125 38.769531 41.828125 40.96875 38.53125 L 41.96875 39 L 34.070313 59.640625 C 34.023438 59.753906 34 59.875 34 60 L 30 60 C 30 59.875 29.976563 59.753906 29.929688 59.640625 Z M 4 59 L 4 53.300781 C 4 49.832031 5.992188 46.675781 9.121094 45.179688 L 17.320313 41.261719 L 18.898438 46.800781 L 16.199219 50.398438 C 15.921875 50.757813 15.921875 51.261719 16.199219 51.621094 L 22.921875 60 L 5 60 C 4.449219 60 4 59.550781 4 59 Z M 60 59 C 60 59.550781 59.550781 60 59 60 L 40.339844 60 L 47.75 51.660156 C 48.0625 51.304688 48.082031 50.777344 47.800781 50.398438 L 45.101563 46.800781 L 46.679688 41.261719 L 54.878906 45.179688 C 58.007813 46.675781 60 49.832031 60 53.300781 Z "></path><path style=" fill:#474c55;" d="M 23.910156 22 L 26.460938 22 C 29.542969 22.007813 32.609375 21.519531 35.539063 20.550781 L 37.109375 20 L 37.339844 20 L 38.941406 21.691406 C 39.320313 22.089844 39.953125 22.105469 40.355469 21.726563 C 40.753906 21.34375 40.769531 20.710938 40.390625 20.308594 L 38.789063 18.621094 C 38.171875 18.03125 37.277344 17.835938 36.46875 18.121094 L 34.910156 18.648438 C 32.1875 19.550781 29.335938 20.007813 26.46875 20 L 23.910156 20 C 23.359375 20 22.910156 20.449219 22.910156 21 C 22.910156 21.550781 23.359375 22 23.910156 22 Z "></path></g></svg>
