<svg xmlns="http://www.w3.org/2000/svg" x="0px" y="0px" width="100" height="100" viewBox="0 0 128 128" style=";fill:#000000;">
  <g>
    <path fill="#F4D7CB" d="M39.4,9.3c-2.2,8.7-3.8,12-8.8,20.1c-3.8,6.1-7.7,16.5-8.2,20.9c-2.3,24.9,9.8,42.1,18.1,68.7v0.2  c7.2,3.1,15.1,4.8,23.5,4.8c8.3,0,16.2-1.7,23.4-4.7V119c8.3-26.6,20.4-43.8,18.1-68.7c-0.4-4.4-4.4-14.8-8.2-20.9  c-5-8.1-6.6-11.4-8.8-20.2C81,5.9,72.7,4,64,4C55.2,4,46.9,5.9,39.4,9.3z"></path>
    <path opacity="0.1" fill="#030303" d="M88.4,115.9c0.2-0.5,0.3-1,0.5-1.5c0.1-0.3,0.2-0.6,0.3-0.9c0.2-0.5,0.3-0.9,0.5-1.4  c0.1-0.3,0.2-0.6,0.3-0.9c0.2-0.4,0.3-0.9,0.5-1.3c0.1-0.3,0.2-0.6,0.3-0.9c0.2-0.4,0.3-0.9,0.5-1.3c0.1-0.3,0.2-0.6,0.3-0.9  c0.2-0.4,0.3-0.9,0.5-1.3c0.1-0.3,0.2-0.5,0.3-0.8c0.2-0.5,0.4-1,0.6-1.5c0.1-0.2,0.2-0.4,0.2-0.6c0.2-0.6,0.5-1.2,0.7-1.8  c0-0.1,0.1-0.1,0.1-0.2c1-2.6,2-5.1,3-7.5c0.1-0.1,0.1-0.3,0.2-0.4c0.2-0.4,0.3-0.9,0.5-1.3c0.1-0.2,0.2-0.4,0.2-0.6  c0.2-0.4,0.3-0.8,0.5-1.2c0.1-0.3,0.2-0.5,0.3-0.8c0.1-0.4,0.3-0.8,0.4-1.1c0.1-0.3,0.2-0.5,0.3-0.8c0.1-0.4,0.3-0.7,0.4-1.1  c0.1-0.3,0.2-0.5,0.3-0.8c0.1-0.4,0.3-0.7,0.4-1.1c0.1-0.3,0.2-0.5,0.3-0.8c0.1-0.4,0.3-0.7,0.4-1.1c0.1-0.3,0.2-0.5,0.3-0.8  c0.1-0.4,0.2-0.7,0.4-1.1c0.1-0.2,0.1-0.5,0.2-0.7c0.2-0.8,0.5-1.5,0.7-2.3c0.1-0.2,0.1-0.5,0.2-0.7c0.1-0.3,0.2-0.7,0.3-1  c0.1-0.3,0.2-0.6,0.2-0.9c0.1-0.3,0.2-0.7,0.3-1c0.1-0.3,0.1-0.6,0.2-0.9c0.1-0.3,0.2-0.7,0.2-1c0.1-0.3,0.1-0.6,0.2-0.9  c0.1-0.3,0.1-0.7,0.2-1c0.1-0.3,0.1-0.6,0.2-0.9c0.1-0.3,0.1-0.7,0.2-1c0.1-0.3,0.1-0.6,0.1-0.9c0.1-0.3,0.1-0.7,0.1-1  c0-0.3,0.1-0.6,0.1-1c0-0.3,0.1-0.7,0.1-1c0-0.3,0.1-0.7,0.1-1c0-0.3,0.1-0.7,0.1-1c0-0.3,0-0.7,0.1-1.1c0-0.3,0-0.7,0.1-1  c0-0.6,0-1.3,0-1.9c0,0,0-0.1,0-0.1c0-2.1-0.1-4.3-0.3-6.6c-0.4-4.4-4.4-14.8-8.2-20.9c-5.1-8.2-6.7-11.5-8.9-20.4L86,8.2  c-1-0.4-2-0.8-3-1.1c0,0,0,0-0.1,0c-1-0.3-2.1-0.7-3.1-1c-1,6.4,0.4,17.7,8.9,27.1c6.9,7.7,5.4,17.5,6.1,24.1  c2.2,23.7-10.3,45.4-13.4,64c2-0.6,4-1.3,5.9-2.1l0,0c0.1,0,0.1-0.1,0.2-0.1V119c0.2-0.8,0.5-1.6,0.8-2.4  C88.3,116.4,88.3,116.1,88.4,115.9z"></path>
    <g>
      <g opacity="0.2">
        <g>
          <path fill="none" d="M64,65"></path>
        </g>
      </g>
      <g opacity="0.2">
        <g>
          <path fill="none" d="M64,85.8"></path>
        </g>
      </g>
      <path fill="#FFFFFF" d="M64,53.1c-22.4,0.2-38.8-8.9-38.8-8.9c-1.2,2.3-2,4.4-2.7,6.5c5.3,6.7,27.7,14.3,39.5,28.8H64h2.1   c9.1-12.4,34.2-22.1,39.5-28.8c-0.7-2-1.6-4.2-2.7-6.5C102.8,44.2,86.4,53.4,64,53.1z"></path>
      <path fill="#FFFFFF" d="M64,53.1c-22.4,0.2-38.8-8.9-38.8-8.9c-1.2,2.3-2,4.4-2.7,6.5c5.3,6.7,27.7,14.3,39.5,28.8H64h2.1   c9.1-12.4,34.2-22.1,39.5-28.8c-0.7-2-1.6-4.2-2.7-6.5C102.8,44.2,86.4,53.4,64,53.1z"></path>
      <path opacity="0.1" fill="#454B54" d="M38.4,61.3c8.1,4.7,17.3,10.4,23.5,18.1H64h2.1c5.1-7,15.3-13.1,24.2-18.3   c-6.8,2.1-15.9,4-26.3,3.9C53.9,65.1,45.1,63.4,38.4,61.3z"></path>
      <path fill="#464C55" d="M108.4,50.5c-0.5-5-4.7-15.8-8.6-22.2c-5-8.2-6.4-11.1-8.7-20.4c-0.4-1.6-2-2.6-3.6-2.2   c-1.6,0.4-2.6,2-2.2,3.6c2.4,9.9,4.1,13.4,9.5,22.1c1.9,3.1,3.8,7.2,5.2,10.9c-4.3,2.1-17.9,7.9-35.1,7.9H64h-0.8   c-17.5,0-31.3-6.1-35.3-8c1.4-3.7,3.3-7.8,5.2-10.9c5.4-8.7,7.1-12.2,9.5-22.1C43,7.6,42,6,40.4,5.6c-1.6-0.4-3.2,0.6-3.6,2.2   c-2.2,9.3-3.7,12.2-8.7,20.4c-4,6.4-8.1,17.2-8.6,22.2c-1.7,18.1,3.8,32,10.2,48.1c2.6,6.6,5.4,13.5,7.8,21.2   c0.4,1.3,1.6,2.1,2.9,2.1c0.3,0,0.6-0.1,0.8-0.2c1.6-0.5,2.5-2.2,2-3.8c-2.5-7.9-5.3-14.9-8-21.6c-5.4-13.4-10.1-25.3-10.1-39.3   c2.5,1.7,5.6,3.5,9.1,5.5c8.4,4.9,18.8,10.9,25.4,19c0,0,0,0,0,0c0.8,1.1,1.4,2.4,1.4,3.8l-0.2,34.3c0,1.6,1.3,3,3,3s3-1.3,3-3   L67,85.4c0-1.4,0.4-2.8,1.3-3.9c0.1-0.1,0.2-0.2,0.2-0.3c5-6.7,15.6-13,24.2-18c3.9-2.3,7.4-4.3,10.1-6.2c0,14-4.7,25.8-10.1,39.3   c-2.6,6.4-5.3,13-7.6,20.5c-0.5,1.4-0.3,3,0.4,4.2c0.7,1.1,1.3,1.1,2,1.1c1.3,0,2.5-0.9,2.8-2c2.5-7.8,5.2-14.8,7.9-21.5   C104.6,82.5,110.1,68.6,108.4,50.5z M89.7,58.1c-9,5.3-19.1,11.2-25,18.4h-1.4C56,68.1,45.6,62,37.3,57.2c-3.8-2.2-9-4.3-11.9-6.2   c0,0,0-0.1,0-0.1c0.1-0.8,0.3-1.9,0.6-3.2c6.4,2.9,21.1,8.5,37.3,8.5h0.8H65c16.7,0,30.9-5,37-7.7c0.2,0.7,0.3,1.3,0.4,1.9   C99.2,52.6,93.9,55.7,89.7,58.1z"></path>
      <g opacity="0.2">
        <g>
          <path fill="#454B54" d="M64,36.4c0,0,0.1,0,0.2,0.1c0.1,0.1,0.3,0.1,0.4,0.2c0.3,0.2,0.8,0.5,1.1,0.8c0.4,0.3,0.7,0.7,0.9,1.2     c0.2,0.4,0.3,0.9,0.3,1.3c0,0.9-0.5,1.8-1.3,2.5c-0.4,0.3-0.8,0.6-1.1,0.8c-0.2,0.1-0.3,0.2-0.4,0.2c-0.1,0.1-0.2,0.1-0.2,0.1     s-0.1,0-0.2-0.1c-0.1-0.1-0.3-0.1-0.4-0.2c-0.3-0.2-0.8-0.5-1.1-0.8C61.5,41.9,61,41,61,40.1c0-0.5,0.1-0.9,0.3-1.3     c0.2-0.4,0.5-0.8,0.9-1.2c0.4-0.3,0.8-0.6,1.1-0.8c0.1-0.1,0.3-0.2,0.4-0.2C63.9,36.4,64,36.4,64,36.4z"></path>
        </g>
      </g>
    </g>
  </g>
</svg>
