<svg xmlns="http://www.w3.org/2000/svg" x="0px" y="0px" width="100" height="100" viewBox="0 0 64 64" style=";fill:#000000;" class="icon icons8-meeting">
  <g id="surface1">
    <path style=" fill:#ed7699;" d="M 41.710938 28.839844 C 40.828125 30.511719 39.496094 31.898438 37.859375 32.839844 L 36 33.878906 C 34.875 34.523438 33.449219 34.226563 32.671875 33.191406 C 32.246094 32.621094 32.074219 31.902344 32.195313 31.203125 C 32.320313 30.503906 32.726563 29.886719 33.320313 29.5 L 35.738281 27.910156 C 36.660156 27.324219 37.363281 26.453125 37.738281 25.429688 L 38.191406 24 C 39.328125 20.867188 41.953125 18.507813 45.191406 17.710938 C 47.046875 17.242188 48.996094 17.273438 50.839844 17.800781 L 51.960938 18.121094 C 53.949219 18.695313 55.710938 19.871094 57 21.488281 C 58.296875 23.113281 59 25.132813 59 27.210938 L 59 36.5 C 59 37.878906 57.878906 39 56.5 39 C 55.121094 39 54 37.878906 54 36.5 L 54 37 L 54.859375 55.859375 C 54.898438 56.679688 54.597656 57.480469 54.03125 58.074219 C 53.464844 58.664063 52.679688 59 51.859375 59 C 50.261719 59.003906 48.941406 57.746094 48.859375 56.148438 L 48 39 L 47.140625 56.148438 C 47.058594 57.746094 45.738281 59.003906 44.140625 59 C 43.320313 59 42.535156 58.664063 41.96875 58.074219 C 41.402344 57.480469 41.101563 56.679688 41.140625 55.859375 L 42 37 L 42 25.628906 "></path>
    <path style=" fill:#72caaf;" d="M 21 25.628906 L 24.148438 29.628906 C 25.351563 31.191406 26.984375 32.363281 28.851563 33 L 31.71875 34 C 32.496094 34.257813 33.347656 34.121094 34 33.632813 C 34.65625 33.144531 35.027344 32.367188 35 31.550781 C 35 30.601563 34.460938 29.738281 33.609375 29.320313 L 30.199219 27.640625 C 29.347656 27.222656 28.632813 26.570313 28.140625 25.761719 L 26 22.320313 C 24.691406 20.183594 22.628906 18.617188 20.21875 17.929688 C 18.09375 17.320313 15.835938 17.320313 13.710938 17.929688 L 13.320313 18.039063 C 11.171875 18.675781 9.296875 20.011719 8 21.839844 L 6.210938 24.339844 C 5.464844 25.382813 5.265625 26.714844 5.671875 27.929688 L 7.339844 32.929688 C 7.738281 34.152344 8.875 34.984375 10.160156 35 L 11 35 "></path>
    <path style=" fill:#72caaf;" d="M 11 25.671875 L 11 37 L 9.140625 55.859375 C 9.101563 56.679688 9.402344 57.480469 9.96875 58.074219 C 10.535156 58.664063 11.320313 59 12.140625 59 C 13.738281 59.003906 15.058594 57.746094 15.140625 56.148438 L 17 39 L 16.859375 56.148438 C 16.941406 57.746094 18.261719 59.003906 19.859375 59 C 20.679688 59 21.464844 58.664063 22.03125 58.074219 C 22.597656 57.480469 22.898438 56.679688 22.859375 55.859375 L 23 37 L 23 25.628906 "></path>
    <path style=" fill:#FAEFDE;" d="M 53 10 C 53 12.761719 50.761719 15 48 15 C 45.238281 15 43 12.761719 43 10 C 43 7.238281 45.238281 5 48 5 C 50.761719 5 53 7.238281 53 10 Z "></path>
    <path style=" fill:#FAEFDE;" d="M 23 10 C 23 12.761719 20.761719 15 18 15 C 15.238281 15 13 12.761719 13 10 C 13 7.238281 15.238281 5 18 5 C 20.761719 5 23 7.238281 23 10 Z "></path>
    <path style=" fill:#474c55;" d="M 48 16 C 51.3125 16 54 13.3125 54 10 C 54 6.6875 51.3125 4 48 4 C 44.6875 4 42 6.6875 42 10 C 42 13.3125 44.6875 16 48 16 Z M 48 5.761719 C 50.339844 5.761719 52.238281 7.660156 52.238281 10 C 52.238281 12.339844 50.339844 14.238281 48 14.238281 C 45.660156 14.238281 43.761719 12.339844 43.761719 10 C 43.765625 7.660156 45.660156 5.765625 48 5.761719 Z "></path>
    <path style=" fill:#474c55;" d="M 18 16 C 21.3125 16 24 13.3125 24 10 C 24 6.6875 21.3125 4 18 4 C 14.6875 4 12 6.6875 12 10 C 12 13.3125 14.6875 16 18 16 Z M 18 5.761719 C 20.339844 5.761719 22.238281 7.660156 22.238281 10 C 22.238281 12.339844 20.339844 14.238281 18 14.238281 C 15.660156 14.238281 13.761719 12.339844 13.761719 10 C 13.765625 7.660156 15.660156 5.765625 18 5.761719 Z "></path>
    <path style=" fill:#474c55;" d="M 57.730469 20.808594 C 56.3125 19.050781 54.382813 17.777344 52.210938 17.160156 L 51.089844 16.839844 C 50.804688 16.761719 50.511719 16.691406 50.21875 16.628906 C 44.511719 15.59375 38.902344 18.871094 37 24.351563 L 36.730469 25.089844 C 36.4375 25.910156 35.886719 26.613281 35.160156 27.089844 L 33.511719 28.171875 L 30.640625 26.761719 C 29.960938 26.417969 29.390625 25.890625 29 25.238281 L 27.410156 22.648438 C 24.742188 18.152344 19.554688 15.792969 14.410156 16.738281 C 14.109375 16.800781 13.8125 16.875 13.519531 16.960938 L 13.128906 17.070313 C 10.738281 17.753906 8.648438 19.226563 7.199219 21.25 L 5.410156 23.75 C 4.476563 25.050781 4.226563 26.722656 4.730469 28.238281 L 6.398438 33.238281 C 6.910156 34.816406 8.34375 35.914063 10 36 L 10 36.910156 L 8.140625 55.820313 C 8.011719 57.875 9.460938 59.691406 11.492188 60.019531 C 13.527344 60.347656 15.476563 59.082031 16 57.089844 C 16.386719 58.476563 17.488281 59.546875 18.886719 59.894531 C 20.28125 60.242188 21.757813 59.8125 22.75 58.769531 C 23.496094 57.996094 23.894531 56.953125 23.851563 55.878906 L 24 37 L 24 31 C 25.242188 32.34375 26.804688 33.355469 28.539063 33.941406 L 31.421875 34.941406 C 32.042969 35.140625 32.707031 35.164063 33.339844 35 C 34.355469 35.433594 35.511719 35.367188 36.46875 34.820313 L 38.359375 33.738281 C 39.347656 33.152344 40.238281 32.414063 41 31.550781 L 41 37 L 40.148438 55.730469 C 40.089844 56.691406 40.367188 57.648438 40.929688 58.429688 C 41.84375 59.660156 43.382813 60.257813 44.886719 59.96875 C 46.394531 59.683594 47.601563 58.558594 48 57.078125 C 48.40625 58.558594 49.621094 59.675781 51.128906 59.953125 C 52.636719 60.234375 54.171875 59.625 55.078125 58.390625 C 55.640625 57.605469 55.914063 56.652344 55.851563 55.691406 L 55.121094 39.691406 C 55.734375 39.953125 56.410156 40.039063 57.070313 39.929688 C 58.78125 39.609375 60.015625 38.109375 60 36.371094 L 60 27.53125 C 60.035156 25.097656 59.230469 22.726563 57.730469 20.808594 Z M 29.171875 32 C 27.492188 31.4375 26.019531 30.394531 24.929688 29 L 21.78125 25 C 21.425781 24.613281 20.835938 24.5625 20.425781 24.886719 C 20.011719 25.210938 19.917969 25.796875 20.210938 26.230469 L 22.011719 28.53125 C 22.011719 28.53125 22.011719 28.578125 22.011719 28.609375 L 22.011719 37 L 21.871094 55.921875 C 21.9375 57.023438 21.097656 57.976563 19.996094 58.046875 C 18.890625 58.113281 17.9375 57.273438 17.871094 56.171875 L 18 39 C 18.03125 38.449219 17.613281 37.972656 17.058594 37.941406 C 16.507813 37.90625 16.03125 38.328125 16 38.878906 L 14.140625 56.101563 C 14.101563 56.902344 13.589844 57.601563 12.839844 57.878906 C 12.085938 58.160156 11.242188 57.960938 10.691406 57.378906 C 10.335938 57.007813 10.140625 56.511719 10.140625 56 L 12 37 L 12 25.671875 C 12 25.117188 11.550781 24.671875 11 24.671875 C 10.449219 24.671875 10 25.117188 10 25.671875 L 10 34 C 9.203125 33.941406 8.519531 33.414063 8.261719 32.660156 L 6.589844 27.660156 C 6.273438 26.734375 6.425781 25.710938 7 24.921875 L 8.789063 22.421875 C 9.972656 20.765625 11.675781 19.5625 13.628906 19 L 14.019531 18.890625 C 14.308594 18.808594 14.59375 18.738281 14.878906 18.679688 C 19.167969 17.9375 23.472656 19.929688 25.679688 23.679688 L 27.28125 26.289063 C 27.875 27.257813 28.730469 28.039063 29.75 28.539063 L 33.160156 30.21875 C 33.925781 30.539063 34.289063 31.421875 33.96875 32.191406 C 33.648438 32.957031 32.769531 33.320313 32 33 Z M 58 36.5 C 58 37.328125 57.328125 38 56.5 38 C 55.671875 38 55 37.328125 55 36.5 L 55 25.671875 C 55 25.117188 54.550781 24.671875 54 24.671875 C 53.449219 24.671875 53 25.117188 53 25.671875 L 53 36.5 C 53 36.5 53 36.558594 53 36.578125 L 53.859375 55.910156 C 53.886719 56.488281 53.664063 57.050781 53.246094 57.453125 C 52.828125 57.851563 52.257813 58.054688 51.679688 58 C 50.65625 57.882813 49.878906 57.027344 49.851563 56 L 49 39 C 49 38.449219 48.550781 38 48 38 C 47.449219 38 47 38.449219 47 39 L 46.148438 56 C 46.109375 57.015625 45.347656 57.859375 44.339844 58 C 43.761719 58.054688 43.191406 57.859375 42.769531 57.460938 C 42.351563 57.058594 42.125 56.5 42.148438 55.921875 L 43 37 L 43 25.628906 C 43 25.078125 42.550781 24.628906 42 24.628906 C 41.449219 24.628906 41 25.078125 41 25.628906 L 41 28.128906 C 40.949219 28.183594 40.90625 28.238281 40.871094 28.300781 C 40.046875 29.742188 38.886719 30.964844 37.488281 31.859375 L 35.730469 32.859375 C 36.226563 31.710938 36.046875 30.378906 35.269531 29.398438 L 36.269531 28.75 C 37.359375 28.03125 38.183594 26.980469 38.621094 25.75 L 38.898438 24.96875 C 40.453125 20.46875 45.035156 17.746094 49.730469 18.539063 C 50.003906 18.59375 50.277344 18.660156 50.550781 18.738281 L 51.671875 19.058594 C 53.464844 19.5625 55.058594 20.613281 56.230469 22.058594 C 57.421875 23.613281 58.046875 25.523438 58 27.480469 Z "></path>
    <path style=" fill:#474c55;" d="M 28 12 C 28.550781 12 29 11.550781 29 11 L 29 9 C 29 8.449219 28.550781 8 28 8 C 27.449219 8 27 8.449219 27 9 L 27 11 C 27 11.550781 27.449219 12 28 12 Z "></path>
    <path style=" fill:#474c55;" d="M 33 12 C 33.550781 12 34 11.550781 34 11 L 34 9 C 34 8.449219 33.550781 8 33 8 C 32.449219 8 32 8.449219 32 9 L 32 11 C 32 11.550781 32.449219 12 33 12 Z "></path>
    <path style=" fill:#474c55;" d="M 38 12 C 38.550781 12 39 11.550781 39 11 L 39 9 C 39 8.449219 38.550781 8 38 8 C 37.449219 8 37 8.449219 37 9 L 37 11 C 37 11.550781 37.449219 12 38 12 Z "></path>
  </g>
</svg>
