<svg id="Capa_1" data-name="Capa 1" xmlns="http://www.w3.org/2000/svg" viewBox="0 0 510.46 512"><title>heroin</title><path d="M503.73,154.23a29.83,29.83,0,1,1-59.65,0c0-16.47,26.07-52.8,29.83-52.8S503.73,137.76,503.73,154.23Z" transform="translate(-0.77 0)" style="fill:#71cbaf"/><path d="M473.9,101.44c-.95,0-3.33,2.33-6.36,6.08,7.9,11.84,16.19,27.43,16.19,36.72a29.83,29.83,0,0,1-29.83,29.83c-.8,0-1.58,0-2.36-.1a29.82,29.82,0,0,0,52.19-19.72C503.73,137.76,477.65,101.44,473.9,101.44Z" transform="translate(-0.77 0)" style="fill:#5d9c89"/><path d="M386,182.51l-55.72-55.72a16.56,16.56,0,0,0-23.42,0L115.74,317.88,194.87,397,386,205.93A16.56,16.56,0,0,0,386,182.51Z" transform="translate(-0.77 0)" style="fill:#71cbaf"/><path d="M386,182.51l-55.72-55.72a16.56,16.56,0,0,0-23.42,0l-8.29,8.29,18.6,18.6a57.32,57.32,0,0,1,0,81.07L174.87,377l20,20L386,205.93A16.56,16.56,0,0,0,386,182.51Z" transform="translate(-0.77 0)" style="fill:#5d9c89"/><rect x="45.45" y="385.35" width="103.81" height="60.1" transform="translate(-265.99 190.51) rotate(-45)" style="fill:#71cbaf"/><path d="M184.09,428.74,84,328.66a8.7,8.7,0,0,1,0-12.31L93,307.41a8.7,8.7,0,0,1,12.31,0L205.34,407.49a8.7,8.7,0,0,1,0,12.31l-8.94,8.94A8.7,8.7,0,0,1,184.09,428.74Z" transform="translate(-0.77 0)" style="fill:#ef5350"/><path d="M184.09,428.74,84,328.66a8.7,8.7,0,0,1,0-12.31L93,307.41a8.7,8.7,0,0,1,12.31,0L205.34,407.49a8.7,8.7,0,0,1,0,12.31l-8.94,8.94A8.7,8.7,0,0,1,184.09,428.74Z" transform="translate(-0.77 0)" style="fill:#6c6c6c"/><path d="M66.55,500.51l-54.3-54.3a13.62,13.62,0,0,1,0-19.26l2-2a13.62,13.62,0,0,1,19.26,0l54.3,54.3a13.62,13.62,0,0,1,0,19.26l-2,2A13.62,13.62,0,0,1,66.55,500.51Z" transform="translate(-0.77 0)" style="fill:#6c6c6c"/><path d="M395,135l-17.19-17.19a5.43,5.43,0,0,0-7.69,0l-24.43,24.43,24.87,24.87L395,142.65A5.43,5.43,0,0,0,395,135Z" transform="translate(-0.77 0)" style="fill:#5d9c89"/><path d="M394.2,134.19l-15.64-15.64L488.75,8.37a3,3,0,0,1,4.2,0h0a19.14,19.14,0,0,1,0,27.07Z" transform="translate(-0.77 0)" style="fill:#e0e0e0"/><path d="M115.74,317.88,194.87,397l97.25-97.25c-66.35-.8-71.66-23.2-132.22-26.05Z" transform="translate(-0.77 0)" style="fill:#f4d7cb"/><path d="M174.87,377l20,20,97.25-97.25a210.76,210.76,0,0,1-36.67-3.33Z" transform="translate(-0.77 0)" style="fill:#d2bbb3"/><path d="M496.58,117.67c-14.89-23.74-20.15-23.74-22.67-23.74s-7.79,0-22.67,23.74c-6.68,10.66-14.65,25.65-14.65,36.56a37.33,37.33,0,1,0,74.65,0C511.23,143.32,503.26,128.33,496.58,117.67ZM473.9,176.56a22.35,22.35,0,0,1-22.33-22.33c0-10.36,14.75-33.56,22.33-42.74,7.58,9.19,22.33,32.38,22.33,42.74A22.35,22.35,0,0,1,473.9,176.56Z" transform="translate(-0.77 0)" style="fill:#464c55"/><path d="M498.25,40.75a26.67,26.67,0,0,0,0-37.68,10.46,10.46,0,0,0-14.8,0L447.57,38.95a7.5,7.5,0,0,0,10.61,10.61l32-32a11.66,11.66,0,0,1-2.56,12.61L394.2,123.59l-5-5L433.43,74.3a7.5,7.5,0,1,0-10.61-10.61l-45.46,45.46a12.87,12.87,0,0,0-12.56,3.32l-19.13,19.13-10.12-10.12a24,24,0,0,0-34,0L115.73,307.27l-5.17-5.17a16.23,16.23,0,0,0-22.92,0L78.71,311a16.2,16.2,0,0,0,0,22.92l23.49,23.49L82.44,377.21A7.5,7.5,0,1,0,93,387.81l19.76-19.76,10.64,10.64-62.8,62.8L50,430.85,68.3,412.56A7.5,7.5,0,0,0,57.69,402L39.4,420.25l-.6-.6a21.15,21.15,0,0,0-29.87,0l-2,2a21.15,21.15,0,0,0,0,29.87l54.3,54.3a21.11,21.11,0,0,0,29.87,0l2-2a21.11,21.11,0,0,0,0-29.87l-.6-.6,62.8-62.8L178.79,434a16.2,16.2,0,0,0,22.92,0l8.94-8.94a16.22,16.22,0,0,0,0-22.92L205.48,397,243,359.51a7.5,7.5,0,1,0-10.61-10.61l-37.51,37.51-68.53-68.53,36.49-36.49c50.64,3.09,60.69,21.09,111.94,25.12l-17.65,17.65a7.5,7.5,0,1,0,10.61,10.61L391.27,211.23a24,24,0,0,0,0-34l-10.12-10.12L400.27,148a12.87,12.87,0,0,0,3.32-12.56ZM82.5,493.22l-2,2a6.12,6.12,0,0,1-8.66,0l-54.3-54.3a6.13,6.13,0,0,1,0-8.66l2-2a6.13,6.13,0,0,1,8.66,0l54.3,54.3A6.12,6.12,0,0,1,82.5,493.22Zm-.6-30.47L71.26,452.11l62.8-62.8L144.7,400ZM200,414.5l-8.94,8.94a1.2,1.2,0,0,1-1.7,0h0L89.32,323.36a1.2,1.2,0,0,1,0-1.7l8.94-8.94a1.21,1.21,0,0,1,1.7,0L200,412.79A1.21,1.21,0,0,1,200,414.5ZM380.66,200.62,359.79,221.5l-19.44-19.44a7.5,7.5,0,0,0-10.61,10.61l19.44,19.44-18.56,18.56-19.44-19.44a7.5,7.5,0,1,0-10.61,10.61L320,261.27l-18.56,18.56L282,260.38A7.5,7.5,0,1,0,271.42,271l19.44,19.44-1.79,1.79c-56.17-1.3-65.25-18.93-112.43-24.64L312.13,132.09a9.05,9.05,0,0,1,12.81,0l55.72,55.72A9.06,9.06,0,0,1,380.66,200.62Zm-10.12-44.15-14.27-14.27,17.67-17.67,14.26,14.26Z" transform="translate(-0.77 0)" style="fill:#464c55"/></svg>
