<svg xmlns="http://www.w3.org/2000/svg" x="0px" y="0px" width="100" height="100" viewBox="0 0 16 16" style=";fill:#000000;">
  <path fill="#464C55" d="M8 3C6.2 3 4 1.8 4 .5 4 .2 4.2 0 4.5 0S5 .2 5 .5C5 1 6.4 2 8 2c.3 0 .5.2.5.5S8.3 3 8 3zM3.8 10H.5C.2 10 0 9.8 0 9.5S.2 9 .5 9h3.3c.3 0 .5.2.5.5S4.1 10 3.8 10zM3.5 8C1.2 8 0 6.7 0 4V3.5C0 3.2.2 3 .5 3S1 3.2 1 3.5V4c0 2.1.7 3 2.5 3C3.8 7 4 7.2 4 7.5S3.8 8 3.5 8zM.5 16C.2 16 0 15.8 0 15.5V15c0-1.9 1.1-4 4-4 .3 0 .5.2.5.5S4.3 12 4 12c-2.7 0-3 2.1-3 3v.5C1 15.8.8 16 .5 16z"></path>
  <path fill="#464C55" d="M8 3C7.7 3 7.5 2.8 7.5 2.5S7.7 2 8 2c1.6 0 3-1 3-1.5C11 .2 11.2 0 11.5 0S12 .2 12 .5C12 1.8 9.8 3 8 3zM15.5 10h-3.3c-.3 0-.5-.2-.5-.5S11.9 9 12.2 9h3.3C15.8 9 16 9.2 16 9.5S15.8 10 15.5 10zM12.5 8C12.2 8 12 7.8 12 7.5S12.2 7 12.5 7C14.3 7 15 6.1 15 4V3.5C15 3.2 15.2 3 15.5 3S16 3.2 16 3.5V4C16 6.7 14.8 8 12.5 8zM15.5 16c-.3 0-.5-.2-.5-.5V15c0-.9-.3-3-3-3-.3 0-.5-.2-.5-.5S11.7 11 12 11c2.9 0 4 2.1 4 4v.5C16 15.8 15.8 16 15.5 16z"></path>
  <path fill="#bae0bd" d="M8,14.5c-2.4,0-4.5-2.8-4.5-6c0-0.3,0-0.5,0-0.8c0-0.4,0.1-0.7,0.2-0.9C3.9,6.5,4,6.5,4.2,6.5 c0.3,0,0.7,0.2,1.2,0.4C6.1,7.1,7,7.5,8,7.5s1.9-0.4,2.6-0.6c0.5-0.2,0.9-0.4,1.2-0.4c0.1,0,0.3,0,0.4,0.3c0.1,0.2,0.2,0.5,0.2,0.9 c0,0.3,0,0.5,0,0.8C12.5,11.7,10.4,14.5,8,14.5z"></path>
  <path fill="#464C55" d="M11.8,7C11.8,7,11.8,7,11.8,7L11.8,7L11.8,7c0.1,0.1,0.1,0.3,0.2,0.8c0,0.2,0,0.5,0,0.7 c0,3-1.8,5.5-4,5.5s-4-2.5-4-5.5C4,8.3,4,8,4,7.8c0-0.5,0.1-0.6,0.2-0.7l0,0l0,0c0,0,0,0,0,0c0.2,0,0.6,0.2,1,0.3C6,7.6,6.9,8,8,8 s2-0.4,2.8-0.7C11.1,7.2,11.6,7,11.8,7 M11.8,6C10.9,6,9.6,7,8,7S5.1,6,4.2,6C3.8,6,3.5,6.1,3.3,6.6C3.2,6.8,3.1,7.2,3,7.7l0,0l0,0 c0,0.3,0,0.6,0,0.8C3,12,5.2,15,8,15s5-3,5-6.5c0-0.3,0-0.6,0-0.8l0,0l0,0c-0.1-0.5-0.1-0.8-0.3-1.1C12.5,6.1,12.2,6,11.8,6L11.8,6 z"></path>
  <path fill="#F4D7CB" d="M8 1.5A2.5 3 0 1 0 8 7.5A2.5 3 0 1 0 8 1.5Z"></path>
  <path fill="#464C55" d="M8,2c1.1,0,2,1.1,2,2.5S9.1,7,8,7S6,5.9,6,4.5S6.9,2,8,2 M8,1C6.3,1,5,2.6,5,4.5S6.3,8,8,8 s3-1.6,3-3.5S9.7,1,8,1L8,1z"></path>
  <g>
    <path fill="#F4D7CB" d="M8,7.5c-1.9,0-3.5-0.9-3.5-2s1.6-2,3.5-2s3.5,0.9,3.5,2S9.9,7.5,8,7.5z"></path>
    <path fill="#464C55" d="M8,4c1.7,0,3,0.8,3,1.5S9.7,7,8,7S5,6.2,5,5.5S6.3,4,8,4 M8,3C5.8,3,4,4.1,4,5.5S5.8,8,8,8 s4-1.1,4-2.5S10.2,3,8,3L8,3z"></path>
  </g>
</svg>
