<svg id="Layer_1" data-name="Layer 1" xmlns="http://www.w3.org/2000/svg" viewBox="0 0 100 100"><title>lyme_disease</title><path d="M57.48,36.1A3,3,0,0,0,58,34.27c.05-3.5-3.4-9.57-7.78-9.64s-8,5.89-8.08,9.39a3,3,0,0,0,.48,1.84,15.89,15.89,0,0,0-8.29,10.72l.81,0,14.6,8.7,15.67-8.26A15.88,15.88,0,0,0,57.48,36.1Z" style="fill:#6d6d6d"/><path d="M64.72,46.86A19,19,0,0,0,50,55.33a19,19,0,0,0-14.73-8.47h0A3.17,3.17,0,0,0,32.56,50V71.56a17.44,17.44,0,1,0,34.88,0V50A3.17,3.17,0,0,0,64.72,46.86Z" style="fill:#71cbaf"/><path d="M62.69,59.51a1.59,1.59,0,1,1-1.59-1.59A1.59,1.59,0,0,1,62.69,59.51Z" style="fill:#303030;opacity:0.3"/><path d="M71.55,61.4l2.15,3.23a13.41,13.41,0,0,0,11.18,6,1.59,1.59,0,1,0,0-3.17,10.25,10.25,0,0,1-8.54-4.57l-2.82-4.24A1.59,1.59,0,0,0,71.7,58L69,58.9V50a4.74,4.74,0,0,0-.83-2.68l4.69-2.23a1.59,1.59,0,0,0,.82-.93c.65-1.28,1.44-8.13,8.72-11.77A1.59,1.59,0,1,0,81,29.55c-8.41,4.21-9.62,12-10.1,13l-4.33,2.06A17.37,17.37,0,0,0,59.4,35.3a5.63,5.63,0,0,0,.11-1.16,13.35,13.35,0,0,0-4.76-9.26V22.6c5-1.68,10-5.11,15.39-10.49a1.59,1.59,0,0,0-2.24-2.24C59,18.73,53.43,19.58,52.67,20a1.59,1.59,0,0,0-1.08,1.5v1.79a6.38,6.38,0,0,0-3.17,0V21.46A1.59,1.59,0,0,0,47.33,20c-.74-.37-6.4-1.24-15.24-10.08a1.59,1.59,0,0,0-2.24,2.24c5.38,5.38,10.41,8.81,15.39,10.49v2.28a13.35,13.35,0,0,0-4.76,9.26,5.59,5.59,0,0,0,.12,1.16,17.37,17.37,0,0,0-7.18,9.27l-4.33-2.06c-.49-.93-1.68-8.75-10.1-13a1.59,1.59,0,0,0-1.42,2.84C24.86,36,25.65,42.88,26.3,44.16a1.58,1.58,0,0,0,.82.93l4.69,2.23A4.74,4.74,0,0,0,31,50v8.9L28.3,58a1.59,1.59,0,0,0-1.82.62l-2.82,4.24a10.24,10.24,0,0,1-8.54,4.57,1.59,1.59,0,1,0,0,3.17,13.41,13.41,0,0,0,11.18-6l2.15-3.23,2.52.84v9.14L23.92,74.9a1.59,1.59,0,0,0-.8,1.92l.93,2.79a6.63,6.63,0,0,1-3.31,8,1.59,1.59,0,1,0,1.42,2.84,9.81,9.81,0,0,0,4.9-11.82l-.49-1.48,4.68-2.34a19,19,0,0,0,37.51,0l4.68,2.34-.49,1.48a9.81,9.81,0,0,0,4.9,11.82,1.59,1.59,0,1,0,1.42-2.84,6.63,6.63,0,0,1-3.31-8l.93-2.79a1.59,1.59,0,0,0-.8-1.92L69,71.38V62.24ZM50,26.22c3.07,0,6.06,4.58,6.32,7.53a17.47,17.47,0,0,0-12.64,0C43.94,30.79,46.93,26.22,50,26.22Zm0,9.51a14.27,14.27,0,0,1,13.51,9.65A20.75,20.75,0,0,0,50,52.69a20.74,20.74,0,0,0-13.51-7.31A14.27,14.27,0,0,1,50,35.73ZM34.14,71.56V50a1.59,1.59,0,0,1,1.22-1.54,17.53,17.53,0,0,1,13.05,7.37V87.34A15.82,15.82,0,0,1,34.14,71.56ZM51.59,87.34V55.83a17.54,17.54,0,0,1,13-7.37A1.59,1.59,0,0,1,65.86,50V71.56A15.82,15.82,0,0,1,51.59,87.34Z" style="fill:#464c55"/><path d="M61.1,64.27a1.59,1.59,0,0,0-1.59,1.59v5.71a9.53,9.53,0,0,1-4.08,7.8A1.59,1.59,0,1,0,57.25,82a12.71,12.71,0,0,0,5.43-10.4V65.86A1.59,1.59,0,0,0,61.1,64.27Z" style="fill:#303030;opacity:0.3"/></svg>