<svg xmlns="http://www.w3.org/2000/svg" x="0px" y="0px"
     width="100" height="100"
     viewBox="0 0 64 64"
     style=";fill:#000000;"
     class="icon icons8-natural-food"><g id="surface1"><path style=" fill:#72CAAF;" d="M 60 19.859375 C 59.949219 18.996094 59.234375 18.324219 58.371094 18.320313 L 57.609375 18.320313 C 51.421875 18.320313 34.300781 19.089844 25.449219 28.019531 C 24.847656 28.644531 24.285156 29.308594 23.761719 30 C 17.761719 37.769531 19.441406 46.429688 24.621094 52 C 27.867188 55.585938 32.398438 57.746094 37.230469 58 C 41.566406 58.132813 45.800781 56.6875 49.148438 53.929688 C 49.828125 53.390625 50.476563 52.8125 51.089844 52.199219 C 53.578125 49.589844 55.503906 46.5 56.75 43.121094 C 60.269531 34.078125 60.191406 23.679688 60 19.859375 Z "></path><path style=" fill:#97E0BB;" d="M 59.628906 18.910156 C 59.316406 18.542969 58.863281 18.328125 58.378906 18.320313 L 57.621094 18.320313 C 52.550781 18.320313 40.121094 18.828125 30.929688 23.949219 C 30.929688 24.019531 30.929688 24.078125 30.929688 24.148438 C 31.375 25.464844 32.800781 26.175781 34.121094 25.738281 C 41.417969 23.324219 49.042969 22.042969 56.730469 21.941406 C 57.523438 21.949219 58.289063 21.628906 58.835938 21.054688 C 59.386719 20.480469 59.675781 19.703125 59.628906 18.910156 Z "></path><path style=" fill:#5DBC9D;" d="M 53.890625 40.890625 C 52.757813 40.734375 51.640625 41.234375 51 42.179688 C 49.628906 44.289063 47.941406 46.179688 46 47.78125 C 45.332031 48.3125 44.632813 48.808594 43.910156 49.261719 C 40.652344 51.433594 36.714844 52.355469 32.828125 51.859375 C 29.839844 51.398438 27.042969 50.105469 24.75 48.128906 C 23.785156 47.316406 22.558594 46.882813 21.300781 46.898438 C 22.105469 48.773438 23.226563 50.5 24.609375 52 C 26.417969 53.953125 28.621094 55.5 31.070313 56.539063 C 31.609375 56.679688 32.148438 56.800781 32.699219 56.890625 C 37.886719 57.691406 43.183594 56.539063 47.570313 53.660156 C 48.46875 53.101563 49.332031 52.488281 50.160156 51.828125 C 52.039063 50.304688 53.71875 48.546875 55.160156 46.601563 C 55.640625 45.710938 56.070313 44.789063 56.460938 43.851563 C 56.457031 42.363281 55.363281 41.101563 53.890625 40.890625 Z "></path><path style=" fill:#97E0BB;" d="M 3 32.601563 C 4.300781 50.929688 27 53 29.578125 30.53125 C 29.671875 29.761719 29.761719 28.988281 29.78125 28.199219 C 30.171875 17.199219 22.140625 7.910156 18.78125 4.511719 C 18.402344 4.121094 17.886719 3.902344 17.34375 3.902344 C 16.804688 3.902344 16.285156 4.121094 15.910156 4.511719 C 12.371094 8.339844 3.390625 19 3 30.261719 C 2.960938 31.039063 2.960938 31.820313 3 32.601563 Z "></path><path style=" fill:#B0EDCC;" d="M 16.71875 4.878906 C 16.238281 4.894531 15.785156 5.117188 15.480469 5.488281 L 15 6.078125 C 11.828125 10.078125 4.519531 20.078125 2.808594 30.480469 L 2.988281 30.570313 L 3 30.570313 C 4.308594 31.039063 5.75 30.367188 6.230469 29.058594 C 8.878906 21.84375 12.621094 15.082031 17.320313 9 C 17.808594 8.382813 18.019531 7.589844 17.90625 6.8125 C 17.792969 6.03125 17.363281 5.332031 16.71875 4.878906 Z "></path><path style=" fill:#474c55;" d="M 59.238281 17.128906 C 54.949219 16.871094 40.480469 16.480469 30.238281 22.308594 C 28.390625 13.628906 22.371094 6.71875 19.46875 3.808594 C 18.902344 3.222656 18.113281 2.902344 17.300781 2.929688 C 16.480469 2.957031 15.707031 3.316406 15.160156 3.929688 C 11.339844 8 2.398438 18.769531 2 30.21875 C 1.957031 31.03125 1.957031 31.847656 2 32.660156 C 2.609375 41.460938 7.699219 46.238281 12.929688 47.511719 C 13.484375 51.144531 14.265625 54.738281 15.28125 58.269531 L 15.28125 58.351563 C 15.410156 58.757813 15.78125 59.039063 16.210938 59.050781 C 16.304688 59.0625 16.398438 59.0625 16.488281 59.050781 C 16.75 58.976563 16.972656 58.804688 17.101563 58.566406 C 17.230469 58.328125 17.261719 58.046875 17.179688 57.789063 L 17.179688 57.671875 C 16.253906 54.433594 15.527344 51.144531 15 47.820313 L 15.808594 47.820313 C 17.496094 47.832031 19.164063 47.492188 20.710938 46.820313 C 21.515625 48.617188 22.585938 50.285156 23.890625 51.761719 C 21.609375 54.8125 19.511719 57.996094 17.601563 61.289063 C 17.457031 61.527344 17.421875 61.8125 17.496094 62.078125 C 17.574219 62.339844 17.753906 62.5625 18 62.691406 C 18.476563 62.953125 19.074219 62.789063 19.351563 62.320313 C 21.179688 59.183594 23.179688 56.152344 25.351563 53.238281 C 27.464844 55.226563 30 56.703125 32.769531 57.558594 C 34.390625 58.050781 36.074219 58.304688 37.769531 58.308594 C 41.769531 58.261719 45.644531 56.9375 48.839844 54.53125 C 49.59375 54 50.316406 53.425781 51 52.808594 C 60.898438 43.589844 61.71875 25.191406 61.730469 19.808594 C 61.753906 18.394531 60.65625 17.210938 59.238281 17.128906 Z M 15.589844 45.859375 C 15.308594 45.859375 15.03125 45.859375 14.738281 45.800781 C 14.222656 42.007813 14.023438 38.175781 14.140625 34.351563 C 14.179688 34.328125 14.214844 34.304688 14.25 34.28125 L 17.378906 31.148438 C 17.683594 30.757813 17.652344 30.199219 17.304688 29.839844 C 16.960938 29.484375 16.402344 29.4375 16 29.730469 L 14.351563 31.378906 C 14.449219 30.171875 14.578125 29.039063 14.730469 28.03125 C 14.808594 27.476563 14.425781 26.964844 13.875 26.886719 C 13.324219 26.804688 12.808594 27.1875 12.730469 27.738281 C 12.199219 31.507813 12.015625 35.316406 12.179688 39.121094 L 10.878906 37.820313 C 10.484375 37.480469 9.890625 37.503906 9.523438 37.871094 C 9.152344 38.242188 9.128906 38.832031 9.46875 39.230469 L 12.230469 42 C 12.265625 42.027344 12.300781 42.050781 12.339844 42.070313 C 12.421875 43.121094 12.539063 44.21875 12.679688 45.339844 C 8.46875 44 4.539063 39.839844 4 32.53125 C 3.960938 31.789063 3.960938 31.042969 4 30.300781 C 4.378906 19.511719 13 9.179688 16.628906 5.25 C 16.8125 5.050781 17.070313 4.9375 17.339844 4.929688 C 17.609375 4.925781 17.867188 5.03125 18.058594 5.21875 C 21.410156 8.578125 29.160156 17.550781 28.789063 28.171875 C 28.789063 28.910156 28.679688 29.671875 28.589844 30.421875 C 27.261719 42 20.761719 46 15.589844 45.859375 Z M 49.589844 51.351563 C 48.984375 51.910156 48.347656 52.4375 47.679688 52.921875 C 43.609375 56.070313 38.273438 57.085938 33.328125 55.648438 C 30.789063 54.863281 28.46875 53.492188 26.550781 51.648438 C 27.859375 49.960938 29.210938 48.289063 30.640625 46.648438 L 39.199219 46.648438 C 39.753906 46.648438 40.199219 46.203125 40.199219 45.648438 C 40.199219 45.097656 39.753906 44.648438 39.199219 44.648438 L 32.5 44.648438 C 34.640625 42.371094 36.871094 40.160156 39.238281 38.058594 L 44.179688 33.679688 C 44.59375 33.3125 44.632813 32.679688 44.265625 32.265625 C 43.898438 31.851563 43.265625 31.8125 42.851563 32.179688 L 37.910156 36.558594 C 37 37.398438 36.160156 38.199219 35.300781 39 L 35.300781 35.851563 C 35.300781 35.296875 34.851563 34.851563 34.300781 34.851563 C 33.746094 34.851563 33.300781 35.296875 33.300781 35.851563 L 33.300781 40.769531 C 33.292969 40.828125 33.292969 40.890625 33.300781 40.949219 C 32 42.25 30.730469 43.578125 29.511719 44.949219 L 29.410156 45.058594 C 27.929688 46.71875 26.511719 48.441406 25.148438 50.191406 C 24.058594 48.894531 23.164063 47.445313 22.488281 45.890625 C 27.140625 42.890625 29.839844 36.761719 30.539063 30.640625 C 30.628906 29.871094 30.71875 29.070313 30.75 28.25 C 30.789063 26.976563 30.726563 25.703125 30.558594 24.441406 C 40.328125 18.5 54.839844 18.878906 59.078125 19.140625 C 59.421875 19.15625 59.6875 19.441406 59.679688 19.78125 C 59.691406 25 58.921875 42.671875 49.609375 51.351563 Z "></path><path style=" fill:#474c55;" d="M 54.691406 21.089844 C 54.101563 21.089844 53.128906 21.089844 51.871094 21.21875 C 51.316406 21.238281 50.886719 21.703125 50.90625 22.253906 C 50.925781 22.808594 51.386719 23.238281 51.941406 23.21875 L 52 23.21875 C 53.210938 23.140625 54.148438 23.101563 54.71875 23.089844 C 55.273438 23.089844 55.71875 22.640625 55.71875 22.089844 C 55.71875 21.539063 55.273438 21.089844 54.71875 21.089844 Z "></path><path style=" fill:#474c55;" d="M 47.910156 22.609375 C 47.832031 22.0625 47.328125 21.683594 46.78125 21.761719 C 43.242188 22.246094 39.761719 23.066406 36.378906 24.210938 C 35.925781 24.375 35.652344 24.839844 35.734375 25.316406 C 35.816406 25.792969 36.226563 26.144531 36.710938 26.148438 C 36.808594 26.148438 36.90625 26.132813 37 26.101563 C 40.25 25 43.597656 24.207031 47 23.738281 C 47.273438 23.71875 47.527344 23.585938 47.699219 23.371094 C 47.871094 23.15625 47.945313 22.882813 47.910156 22.609375 Z "></path><path style=" fill:#474c55;" d="M 46.941406 45.480469 C 46.542969 45.140625 45.953125 45.164063 45.582031 45.53125 C 45.214844 45.902344 45.191406 46.492188 45.53125 46.890625 L 47.050781 48.410156 C 47.4375 48.800781 48.074219 48.804688 48.464844 48.414063 C 48.855469 48.027344 48.859375 47.390625 48.46875 47 Z "></path><path style=" fill:#474c55;" d="M 36.328125 49.128906 C 35.777344 49.128906 35.328125 49.578125 35.328125 50.128906 L 35.328125 52.441406 C 35.328125 52.992188 35.777344 53.441406 36.328125 53.441406 C 36.882813 53.441406 37.328125 52.992188 37.328125 52.441406 L 37.328125 50.128906 C 37.328125 49.578125 36.882813 49.128906 36.328125 49.128906 Z "></path><path style=" fill:#474c55;" d="M 51.601563 41.679688 L 49.601563 40.839844 C 49.269531 40.683594 48.878906 40.722656 48.582031 40.9375 C 48.285156 41.15625 48.132813 41.515625 48.183594 41.878906 C 48.234375 42.242188 48.476563 42.550781 48.820313 42.679688 L 50.820313 43.519531 C 51.152344 43.675781 51.542969 43.636719 51.835938 43.421875 C 52.132813 43.203125 52.285156 42.84375 52.238281 42.480469 C 52.1875 42.117188 51.941406 41.808594 51.601563 41.679688 Z "></path><path style=" fill:#474c55;" d="M 42.449219 48.75 C 42.222656 48.273438 41.660156 48.054688 41.171875 48.253906 C 40.683594 48.453125 40.433594 49 40.601563 49.5 L 41.46875 51.640625 C 41.589844 51.992188 41.894531 52.25 42.261719 52.308594 C 42.628906 52.367188 42.996094 52.21875 43.21875 51.921875 C 43.441406 51.621094 43.480469 51.226563 43.320313 50.890625 Z "></path><path style=" fill:#474c55;" d="M 15.328125 21.058594 C 15.078125 20.96875 14.804688 20.984375 14.5625 21.097656 C 14.324219 21.214844 14.136719 21.417969 14.050781 21.671875 C 12.769531 22.28125 13.789063 22.390625 13.480469 23.671875 C 13.386719 24.191406 13.714844 24.691406 14.230469 24.816406 C 14.742188 24.941406 15.265625 24.644531 15.421875 24.140625 C 15.710938 22.960938 15.929688 22.328125 15.929688 22.320313 C 16.105469 21.808594 15.839844 21.246094 15.328125 21.058594 Z "></path></g></svg>
