<svg xmlns="http://www.w3.org/2000/svg" x="0px" y="0px" width="100" height="100" viewBox="0 0 64 64" style=";fill:#000000;">
  <path fill="#F4D7CB" d="M54.6,14.45c-1.16-2.89-3.17-4.01-4.68-4.66c-0.83-0.43-1.89-0.77-3.24-1 c-2.56-0.43-5.29-1.34-7.69-2.31c-0.82-0.33-1.36-1.13-1.36-2.02V2H26.44v2.46c0,0.89-0.53,1.69-1.36,2.02 c-2.4,0.97-5.12,1.88-7.69,2.31c-1.35,0.23-2.41,0.57-3.24,1c-1.5,0.65-3.52,1.77-4.68,4.66c-2.28,5.66-3.4,29.53-3.4,29.53 c0,0.98,0.27,2.36,0.79,3.55c0.18,0.54,0.34,0.89,0.34,0.89l5.71,12.55c-0.02,0.34-0.05,0.67-0.05,1.03h19.11 c0.71,0,1.13,0,1.13,0h18.11c0-0.36-0.03-0.69-0.05-1.04l5.71-12.54c0,0,0.17-0.35,0.34-0.89c0.52-1.19,0.79-2.57,0.79-3.55 C58,43.98,56.88,20.11,54.6,14.45z M16.16,51.28l-1.22-2.79l-0.74-1.67l-0.02-0.06c0,0-0.57-1.28-1.24-2.8 c0.34-1.58,0.95-4.37,1.61-7.68c0.21-1.09,0.43-2.24,0.65-3.43c0.15-0.84,0.31-1.71,0.46-2.58c0.27,0.68,0.55,1.34,0.81,1.98 c1.73,4.18,3.18,7.64,3.18,10.5c0,2.37-1.19,4.55-2.58,6.94C16.78,50.21,16.47,50.74,16.16,51.28z M49.89,46.76l-0.18,0.41 l-0.47,1.06v0.01l-1.33,3.04c-0.34-0.59-0.68-1.17-1-1.73c-1.35-2.34-2.49-4.47-2.49-6.8c0-2.83,1.42-6.24,3.12-10.36 c0.28-0.69,0.58-1.39,0.87-2.12c0.17,0.93,0.33,1.86,0.5,2.76c0.17,0.92,0.34,1.82,0.51,2.68c0.7,3.56,1.35,6.59,1.72,8.26 C50.47,45.48,49.89,46.76,49.89,46.76z"></path>
  <path fill="#454B54" d="M51.21,63H12.863c-0.552,0-1-0.447-1-1c0-0.29,0.017-0.568,0.035-0.846L6.294,48.829 c-0.009-0.017-0.193-0.4-0.386-0.986c-0.502-1.139-0.835-2.652-0.835-3.862c0.047-1.028,1.154-24.155,3.467-29.9 c1.293-3.21,3.593-4.512,5.211-5.212c0.904-0.465,2.093-0.832,3.474-1.062c2.159-0.359,4.676-1.117,7.482-2.252 c0.447-0.181,0.736-0.609,0.736-1.092V2c0-0.553,0.448-1,1-1h11.185c0.553,0,1,0.447,1,1v2.462c0,0.482,0.289,0.91,0.736,1.092 c2.806,1.135,5.323,1.892,7.481,2.252c1.382,0.23,2.57,0.598,3.533,1.091c1.56,0.672,3.86,1.975,5.152,5.184v-0.001 c2.314,5.746,3.421,28.873,3.467,29.854c0.001,1.258-0.332,2.772-0.868,3.997c-0.159,0.499-0.344,0.883-0.365,0.925 l-5.59,12.296C52.193,61.431,52.21,61.71,52.21,62C52.21,62.553,51.763,63,51.21,63z M13.911,61h36.252 c-0.006-0.155,0.024-0.309,0.089-0.45l5.706-12.549c0.023-0.05,0.162-0.342,0.307-0.783C56.725,46.155,57,44.919,57,43.98 c-0.01-0.19-1.135-23.721-3.323-29.153v-0.001c-1-2.482-2.659-3.477-4.15-4.122c-0.838-0.427-1.83-0.729-3.009-0.926 c-2.302-0.384-4.961-1.182-7.902-2.371c-1.207-0.488-1.986-1.644-1.986-2.945V3h-9.185v1.462c0,1.302-0.78,2.458-1.986,2.945 c-2.941,1.189-5.601,1.987-7.903,2.371c-1.178,0.196-2.17,0.499-2.95,0.897c-1.549,0.673-3.208,1.668-4.208,4.151 c-2.188,5.433-3.313,28.963-3.324,29.2c0.001,0.892,0.276,2.127,0.703,3.103c0.179,0.53,0.317,0.822,0.329,0.848l5.717,12.575 C13.885,60.693,13.916,60.847,13.911,61z M47.91,52.277c-0.134,0-0.27-0.026-0.4-0.084c-0.506-0.222-0.736-0.812-0.515-1.317 l3.091-7.014c-0.151-0.658-0.359-1.499-0.601-2.478c-0.736-2.978-1.745-7.057-2.471-11.213c-0.095-0.544,0.27-1.062,0.813-1.157 c0.543-0.093,1.062,0.27,1.157,0.813c0.714,4.088,1.712,8.128,2.441,11.077c0.288,1.163,0.528,2.137,0.685,2.845 c0.046,0.209,0.024,0.426-0.062,0.621l-3.222,7.308C48.663,52.054,48.296,52.277,47.91,52.277z M16.163,52.275 c-0.385,0-0.752-0.224-0.917-0.599l-3.222-7.307c-0.086-0.195-0.108-0.413-0.062-0.621c0.144-0.648,0.353-1.521,0.602-2.558 c0.683-2.843,1.714-7.139,2.452-11.363c0.095-0.544,0.615-0.903,1.157-0.813c0.544,0.096,0.908,0.613,0.813,1.157 c-0.748,4.287-1.789,8.619-2.477,11.486c-0.207,0.861-0.386,1.606-0.522,2.203l3.092,7.013c0.222,0.506-0.009,1.096-0.515,1.317 C16.433,52.248,16.297,52.275,16.163,52.275z"></path>
  <path fill="#F4D7CB" d="M24,42.16c0,2.37-0.74,4.49-1.72,6.5C21.46,50.34,17.63,52.91,16,52l1.07-2.31 c1.39-2.39,2.58-4.57,2.58-6.94c0-2.86-1.45-6.32-3.18-10.5L16,30c1.65-0.78,5.28,1.66,5.99,3.35C23.14,36.03,24,38.8,24,42.16 z"></path>
  <path fill="#F4D7CB" d="M47.54,32.39c-1.7,4.12-3.12,7.53-3.12,10.36c0,2.33,1.14,4.46,2.49,6.8L47,51 c-1.69,0.95-4.77-0.7-5.61-2.45c-0.96-1.98-1.67-4.06-1.67-6.39c0-3.39,0.88-6.17,2.03-8.87c0.7-1.65,4.62-4.06,6.25-3.29 L47.54,32.39z"></path>
  <path fill="#454B54" d="M13.111,63.01c-0.552,0-1-0.447-1-1c0-5.376,2.216-9.297,4.17-12.756 C17.744,46.664,19,44.439,19,42.16c0-3.524-1.35-6.399-2.913-9.729c-1.455-3.1-3.102-6.608-4.067-11.436 c-0.108-0.542,0.243-1.068,0.784-1.177c0.542-0.112,1.068,0.242,1.177,0.784c0.918,4.59,2.51,7.981,3.915,10.974 C19.562,35.127,21,38.189,21,42.16c0,2.806-1.375,5.242-2.969,8.062c-1.842,3.26-3.92,6.938-3.92,11.787 C14.111,62.562,13.664,63.01,13.111,63.01z"></path>
  <path fill="#454B54" d="M22.589,49c-0.138,0-0.278-0.028-0.412-0.089c-0.503-0.229-0.726-0.821-0.498-1.324 C22.58,45.598,23,43.873,23,42.16c0-0.374-0.011-0.74-0.033-1.1c-0.034-0.552,0.386-1.025,0.938-1.059 c0.55-0.019,1.025,0.387,1.059,0.938C24.988,41.338,25,41.745,25,42.16c0,2.008-0.477,3.994-1.5,6.253 C23.333,48.782,22.969,49,22.589,49z"></path>
  <path fill="#454B54" d="M23.295,38c-0.439,0-0.843-0.292-0.964-0.736c-0.248-0.906-0.573-1.852-0.992-2.889 c-0.207-0.512,0.041-1.095,0.552-1.302c0.515-0.208,1.095,0.041,1.302,0.552c0.449,1.11,0.798,2.128,1.066,3.111 c0.146,0.532-0.168,1.083-0.701,1.229C23.471,37.988,23.382,38,23.295,38z"></path>
  <path fill="#454B54" d="M50.889,63.01c-0.553,0-1-0.447-1-1c0-4.847-2.076-8.523-3.908-11.767 C44.377,47.403,43,44.967,43,42.16c0-3.973,1.437-7.034,3.103-10.579c1.407-2.997,2.999-6.389,3.917-10.979 c0.108-0.542,0.635-0.896,1.177-0.784c0.541,0.108,0.893,0.635,0.784,1.177c-0.966,4.827-2.612,8.336-4.065,11.431 C46.35,35.76,45,38.634,45,42.16c0,2.28,1.257,4.506,2.712,7.082c1.963,3.476,4.177,7.395,4.177,12.768 C51.889,62.562,51.441,63.01,50.889,63.01z"></path>
  <path fill="#454B54" d="M40.705,38c-0.088,0-0.176-0.012-0.265-0.035c-0.532-0.146-0.847-0.695-0.701-1.229 c0.269-0.981,0.617-1.999,1.067-3.111c0.207-0.512,0.79-0.758,1.302-0.552c0.512,0.207,0.759,0.79,0.552,1.302 c-0.42,1.039-0.744,1.983-0.991,2.889C41.547,37.708,41.145,38,40.705,38z"></path>
  <path fill="#454B54" d="M41.412,49c-0.381,0-0.745-0.218-0.912-0.588c-1.023-2.259-1.5-4.246-1.5-6.252 c0-0.415,0.013-0.823,0.037-1.222c0.034-0.551,0.519-0.956,1.06-0.937c0.552,0.034,0.971,0.509,0.937,1.06 C41.011,41.421,41,41.786,41,42.16c0,1.711,0.42,3.436,1.322,5.428c0.228,0.503,0.005,1.095-0.499,1.323 C41.689,48.972,41.55,49,41.412,49z"></path>
  <g>
    <path fill="#454B54" d="M30,47c0,0.551,0.449,1,1,1h2c0.551,0,1-0.449,1-1s-0.449-1-1-1h-2C30.449,46,30,46.449,30,47z"></path>
    <path fill="#454B54" d="M30,52c0,0.551,0.449,1,1,1h2c0.551,0,1-0.449,1-1s-0.449-1-1-1h-2C30.449,51,30,51.449,30,52z"></path>
    <path fill="#454B54" d="M30,42c0,0.551,0.449,1,1,1h2c0.551,0,1-0.449,1-1s-0.449-1-1-1h-2C30.449,41,30,41.449,30,42z"></path>
    <path fill="#454B54" d="M30,37c0,0.551,0.449,1,1,1h2c0.551,0,1-0.449,1-1s-0.449-1-1-1h-2C30.449,36,30,36.449,30,37z"></path>
    <path fill="#454B54" d="M30,32c0,0.551,0.449,1,1,1h2c0.551,0,1-0.449,1-1s-0.449-1-1-1h-2C30.449,31,30,31.449,30,32z"></path>
    <path fill="#454B54" d="M30,27c0,0.551,0.449,1,1,1h2c0.551,0,1-0.449,1-1s-0.449-1-1-1h-2C30.449,26,30,26.449,30,27z"></path>
    <path fill="#454B54" d="M30,22c0,0.551,0.449,1,1,1h2c0.551,0,1-0.449,1-1s-0.449-1-1-1h-2C30.449,21,30,21.449,30,22z"></path>
    <path fill="#454B54" d="M30,17c0,0.551,0.449,1,1,1h2c0.551,0,1-0.449,1-1s-0.449-1-1-1h-2C30.449,16,30,16.449,30,17z"></path>
    <path fill="#454B54" d="M30,12c0,0.551,0.449,1,1,1h2c0.551,0,1-0.449,1-1s-0.449-1-1-1h-2C30.449,11,30,11.449,30,12z"></path>
  </g>
</svg>
