<svg xmlns="http://www.w3.org/2000/svg"
      width="100" height="100"
      viewBox="0 0 92.99 92.91">
      <g id="surface1">
        <path d="M52.12,21.87c-.4-2-.51-9.67-.51-15.87H41.73c0,20.72,2.13,26.08,6,30.7a13.61,13.61,0,0,0,8.83,3.89c.8-2.45,4.79-10.54-.08-10.66C52.27,29.82,52.14,22,52.12,21.87Z" transform="translate(-2.68 -4)" style="fill:#f4d7cb;stroke:#464c54;stroke-linecap:square;stroke-linejoin:round;stroke-width:4px"/>
        <path d="M51.61,43.06c0,2.21,2.24,28.3-12.44,28.3-10.9,0-11.52-3.6-19.67-3.6-3.5,0-6.53,1.75-9.8,7.39-2.08,3.6-5,12-5,12s2.43,4.8,9.67,3.5c.38-1.37,1.9-9.21,5.55-9.21,3,0,4.79.07,9.11,4.05,5.27,4.85,10.54,9.39,21.91,9.39,18.46,0,36.43-11.77,41.35-35.08,6-28.63-8.55-41.47-20.9-41.47C60.33,18.36,51.61,22.87,51.61,43.06Z" transform="translate(-2.68 -4)" style="fill:#f4d7cb;stroke:#464c54;stroke-linecap:square;stroke-linejoin:round;stroke-width:4px"/>
      </g>
      <path d="M76.58,20.82S100,23.7,93.71,57.88C85,99.57,49.23,94,49.23,94s35-12.47,38-36.67C90.5,31.08,76.58,20.82,76.58,20.82Z" transform="translate(-2.68 -4)" style="fill:#464c54;opacity:0.2"/>
      <path d="M45.1,8H51l1.31,20-2.51,8.49s.1-5.37-.18-8.8S45.1,8,45.1,8Z" transform="translate(-2.68 -4)" style="fill:#464c54;opacity:0.2"/><path d="M46.35,8" transform="translate(-2.68 -4)" style="fill:#464c54"/>
</svg>
